<?xml version="1.0" encoding="UTF-8" standalone="no" ?>
<!DOCTYPE svg PUBLIC "-//W3C//DTD SVG 1.1//EN" "http://www.w3.org/Graphics/SVG/1.1/DTD/svg11.dtd">
<svg xmlns="http://www.w3.org/2000/svg" xmlns:xlink="http://www.w3.org/1999/xlink" version="1.1" width="1080" height="1080" viewBox="0 0 1080 1080" xml:space="preserve">
<desc>Created with Fabric.js 5.2.4</desc>
<defs>
</defs>
<g transform="matrix(1 0 0 1 540 540)" id="68475771-ed12-4316-a5d2-5e37b74ca3a9"  >
<rect style="stroke: none; stroke-width: 1; stroke-dasharray: none; stroke-linecap: butt; stroke-dashoffset: 0; stroke-linejoin: miter; stroke-miterlimit: 4; fill: rgb(3,3,3); fill-rule: nonzero; opacity: 1; visibility: hidden;" vector-effect="non-scaling-stroke"  x="-540" y="-540" rx="0" ry="0" width="1080" height="1080" />
</g>
<g transform="matrix(1 0 0 1 540 540)" id="346ac333-93b6-4b7f-96b1-4f2870562bbd"  >
</g>
<g transform="matrix(2.62 0 0 2.62 540 540)"  >
<path style="stroke: none; stroke-width: 1; stroke-dasharray: none; stroke-linecap: butt; stroke-dashoffset: 0; stroke-linejoin: miter; stroke-miterlimit: 4; fill: rgb(255,255,255); fill-rule: evenodd; opacity: 1;" vector-effect="non-scaling-stroke"  transform=" translate(-199.83, -191.85)" d="M 20.196 7.39 C 13.901 9.267 9.036 14.151 7.361 20.276 C 6.952 21.771 6.883 23.521 6.878 32.539 L 6.872 43.058 L 8.275 43.046 C 9.046 43.04 14.979 42.851 21.459 42.625 C 91.113 40.205 187.133 44.919 250.771 53.884 C 347.886 67.565 391.362 89.964 370.266 115.448 C 340.913 150.906 169.554 175.153 12.623 166.052 C 10.077 165.905 7.709 165.783 7.36 165.781 L 6.725 165.778 L 6.799 263.745 C 6.868 356.557 6.899 361.8 7.369 363.394 C 9.437 370.397 15.124 375.511 22.175 376.709 C 23.475 376.93 73.727 376.994 201.122 376.937 L 378.261 376.858 L 380.502 376.066 C 386.1 374.088 390.17 370.154 392.111 364.846 L 392.847 362.833 L 392.918 192.437 C 392.981 41.075 392.942 21.851 392.565 20.347 C 390.993 14.077 385.787 8.931 379.352 7.285 C 377.21 6.738 375.457 6.732 199.745 6.747 L 22.3 6.762 L 20.196 7.39 M 33.38 48.827 C 21.913 49.128 7.189 49.691 6.942 49.838 C 6.665 50.003 6.669 130.924 6.947 131.095 C 7.539 131.461 31.565 132.529 49.509 132.987 C 63.921 133.354 111.874 133.172 123.703 132.705 C 145.678 131.837 156.143 131.316 169.565 130.423 C 275.172 123.395 339.812 105.551 330.223 86.071 C 320.47 66.26 229.426 51.596 98.878 48.809 C 84.329 48.498 45.499 48.509 33.38 48.827 M 233.801 199.695 C 275.043 206.597 292.921 248.806 266.594 277.119 C 240.872 304.781 189.386 298.757 173.145 266.184 L 171.529 262.943 L 158.065 262.759 C 143.541 262.562 129.916 261.732 124.053 260.689 L 123.142 260.527 L 123.142 271.217 L 123.142 281.907 L 147.546 281.907 L 171.95 281.907 L 171.95 285.694 L 171.95 289.481 L 142.779 289.481 L 113.609 289.481 L 113.537 274.273 L 113.464 259.064 L 112.202 258.829 C 94.109 255.464 84.898 248.902 91.13 243.818 C 94.786 240.835 101.141 238.388 109.982 236.559 L 113.604 235.809 L 113.604 222.272 C 113.604 208.335 113.568 207.849 112.533 207.855 C 111.624 207.86 106.687 213.864 78.678 249.033 L 46.704 289.179 L 41.268 289.19 L 35.833 289.201 L 36.5 288.367 C 36.867 287.908 52.062 268.854 70.266 246.024 L 103.366 204.515 L 137.518 204.502 L 171.669 204.488 L 171.669 208.415 L 171.669 212.342 L 147.405 212.342 L 123.142 212.342 L 123.142 223.312 L 123.142 234.282 L 123.773 234.128 C 126.589 233.44 142.368 232.322 152.805 232.071 L 160.449 231.887 L 160.449 232.914 L 160.449 233.941 L 154.628 233.945 C 145.301 233.952 127.962 235.139 123.773 236.057 L 123.142 236.196 L 123.142 244.325 C 123.142 248.796 123.24 252.454 123.36 252.454 C 123.481 252.454 125.09 252.64 126.937 252.867 C 136.091 253.991 149.166 254.691 161.097 254.696 L 168.898 254.698 L 168.671 251.964 C 166.358 224.134 186.892 202.396 218.654 199.05 C 221.402 198.76 230.541 199.15 233.801 199.695 M 364.376 246.564 L 364.376 289.201 L 359.339 289.201 L 354.302 289.201 L 325.749 253.595 L 297.195 217.989 L 297.124 253.735 L 297.053 289.481 L 292.145 289.481 L 287.237 289.481 L 287.237 246.844 L 287.237 204.208 L 292.216 204.209 L 297.195 204.21 L 325.666 239.861 C 341.325 259.468 354.356 275.783 354.622 276.115 C 355.082 276.687 355.107 274.853 355.113 240.323 L 355.119 203.927 L 359.748 203.927 L 364.376 203.927 L 364.376 246.564 M 216.83 208.284 C 192.609 211.662 175.872 231.019 178.999 252.038 L 179.315 254.169 L 180.752 254.022 C 181.542 253.942 183.261 253.803 184.572 253.715 C 205.482 252.3 220.827 248.255 220.827 244.157 C 220.827 240.56 206.798 236.577 188.7 235.036 C 184.064 234.642 184.39 234.756 184.993 233.736 L 185.469 232.93 L 189.158 233.284 C 221.436 236.377 238.06 243.808 229.533 251.33 C 224.026 256.187 206.163 260.425 185.063 261.88 C 183.559 261.984 182.328 262.148 182.328 262.245 C 182.328 263.522 186.885 269.578 190.393 272.963 C 217.84 299.449 268.805 282.473 268.805 246.844 C 268.805 222.991 243.894 204.509 216.83 208.284 M 110.07 238.57 C 103.912 240.2 100.146 242.399 100.141 244.368 C 100.137 246.283 106.728 249.523 112.34 250.365 L 113.604 250.555 L 113.604 244.211 C 113.604 236.881 114.01 237.528 110.07 238.57 M 201.964 305.47 L 201.964 308.555 L 200.982 308.555 L 200 308.555 L 200 305.47 L 200 302.384 L 200.982 302.384 L 201.964 302.384 L 201.964 305.47 M 293.408 305.47 L 293.408 308.555 L 292.426 308.555 L 291.445 308.555 L 291.445 305.47 L 291.445 302.384 L 292.426 302.384 L 293.408 302.384 L 293.408 305.47 M 112.188 309.559 C 114.827 310.343 116.287 312.573 115.458 314.557 C 114.483 316.89 109.951 318.543 109.731 316.646 C 109.654 315.977 109.799 315.842 111.132 315.345 C 115.476 313.725 113.486 311.22 107.854 311.22 C 102.222 311.22 100.232 313.725 104.576 315.345 C 105.91 315.842 106.054 315.977 105.977 316.646 C 105.683 319.183 100.064 316.072 100.064 313.373 C 100.064 309.788 106.325 307.818 112.188 309.559 M 240.354 309.13 C 246.155 310.071 247.764 314.503 243.141 316.806 C 241.513 317.617 240.347 317.732 239.847 317.129 C 239.301 316.471 239.952 315.686 241.374 315.288 C 245.838 314.038 243.509 311.231 238.008 311.231 C 232.564 311.231 230.096 314.074 234.484 315.291 C 235.926 315.69 236.246 315.967 236.14 316.722 C 235.997 317.73 234.464 317.747 232.702 316.761 C 226.516 313.299 232.048 307.782 240.354 309.13 M 296.565 309.584 C 299.348 310.411 300.876 312.827 299.84 314.763 C 299.555 315.297 299.617 315.319 301.173 315.235 C 302.928 315.141 303.642 316.043 302.537 316.96 C 301.78 317.588 294.762 317.728 294.261 317.125 C 293.693 316.44 294.136 315.889 295.744 315.278 C 301.101 313.245 295.663 309.997 289.378 311.476 C 286.464 312.162 285.754 313.948 288.016 314.903 C 290.267 315.855 290.463 315.998 290.463 316.701 C 290.463 318.147 287.317 317.527 285.584 315.739 C 281.51 311.536 289.001 307.338 296.565 309.584 M 203.971 310.265 C 206.582 310.931 209.124 313.657 209.308 315.989 L 209.397 317.111 L 208.243 317.195 C 207.096 317.279 207.088 317.273 206.911 316.165 C 206.712 314.92 205.664 313.511 204.483 312.901 C 202.369 311.807 197.736 311.671 198.203 312.716 C 199.724 316.118 195.775 319.219 193.29 316.573 C 189.675 312.726 196.9 308.459 203.971 310.265 M 89.19 310.654 C 90.52 311.341 91.164 312.396 91.164 313.885 C 91.164 317.562 86.337 318.908 84.421 315.765 C 82.558 312.71 86.011 309.01 89.19 310.654 M 293.543 312.658 C 294.248 313.362 293.988 314.761 293.058 315.279 C 291.452 316.172 289.813 314.101 291.046 312.738 C 291.64 312.082 292.927 312.041 293.543 312.658 M 86.571 312.908 C 86.007 313.472 85.98 314.546 86.519 314.993 C 87.687 315.962 89.628 314.43 88.808 313.186 C 88.332 312.465 87.16 312.319 86.571 312.908 M 195.231 313.248 C 194.184 313.647 194.072 315.154 195.056 315.603 C 196.032 316.048 196.914 315.499 196.914 314.446 C 196.914 313.762 196.221 312.946 195.741 313.066 C 195.692 313.078 195.463 313.16 195.231 313.248 M 246.336 320.305 C 246.442 320.399 246.233 321.088 245.872 321.835 L 245.216 323.193 L 245.878 324.64 C 247.696 328.615 246.735 337.18 244.331 338.423 C 242.152 339.55 240.936 338.734 238.89 334.771 C 236.994 331.1 234.782 330.308 232.579 332.51 C 231.681 333.409 231.898 333.657 233.07 333.072 C 235.04 332.09 237.307 333.552 237.307 335.804 C 237.307 340.242 230.663 339.819 229.729 335.321 C 228.983 331.731 231.271 329.304 235.456 329.245 C 238.336 329.205 239.299 329.998 241.099 333.893 C 243.185 338.409 244.18 337.184 244.18 330.098 C 244.18 325.267 244.067 325.007 242.419 326.047 C 236.958 329.495 227.821 327.231 229.912 322.949 C 231.077 320.565 237.641 319.401 241.869 320.828 C 243.573 321.403 243.793 321.338 244.158 320.145 C 244.34 319.552 245.596 319.644 246.336 320.305 M 83.164 321.007 C 84.683 322.525 84.349 324.331 81.761 328.61 C 78.957 333.245 79.306 334.848 83.389 336.088 C 87.414 337.311 91.781 335.973 92.591 333.27 C 93.082 331.631 92.803 323.003 92.217 321.669 L 91.754 320.617 L 93.109 320.617 L 94.464 320.617 L 94.777 321.863 C 95.33 324.059 95.175 333.168 94.562 334.518 C 93.431 337.008 90.71 338.501 86.816 338.766 C 78.489 339.334 74.906 333.679 79.761 327.63 L 80.774 326.367 L 79.902 326.185 C 77.522 325.687 76.689 322.751 78.476 321.155 C 79.72 320.043 82.125 319.967 83.164 321.007 M 112.342 321.09 C 115.474 322.757 116.269 324.622 116.269 330.295 C 116.269 336.551 115.263 338.85 112.523 338.85 C 110.979 338.85 110.361 338.243 108.859 335.252 C 106.799 331.151 104.595 330.188 102.366 332.417 C 101.518 333.265 101.725 333.533 102.862 333.058 C 105.982 331.754 108.578 335.517 106.199 337.896 C 104.449 339.647 100.923 338.896 99.856 336.545 C 98.271 333.053 100.077 329.858 103.931 329.335 C 107.477 328.854 108.765 329.695 110.764 333.801 C 112.889 338.165 114.025 336.943 114.025 330.295 C 114.025 324.218 112.948 322.87 107.9 322.628 C 103.786 322.432 100.9 323.369 101.973 324.554 C 102.471 325.105 102.266 325.791 101.386 326.521 C 99.897 327.757 98.683 323.84 100.073 322.284 C 101.847 320.299 109.462 319.558 112.342 321.09 M 125.01 320.879 C 125.498 321.177 125.982 321.69 126.087 322.021 C 126.258 322.559 126.327 322.578 126.743 322.206 C 129.516 319.73 134.909 319.728 137.492 322.202 L 138.289 322.966 L 138.289 330.225 C 138.289 338.601 138.296 338.569 136.32 338.569 L 134.931 338.569 L 135.487 337.658 C 136.048 336.738 136.368 325.432 135.87 324.134 C 135.106 322.143 130.669 322.146 127.657 324.139 L 126.508 324.899 L 126.508 330.626 C 126.508 337.036 126.376 337.607 124.725 338.391 C 123.518 338.964 122.236 338.976 121.173 338.426 C 118.28 336.931 120.092 332.202 123.325 332.809 L 124.281 332.988 L 124.202 329.537 C 124.125 326.166 124.109 326.089 123.508 326.172 C 120.84 326.541 118.882 323.941 120.102 321.651 C 120.862 320.224 123.306 319.84 125.01 320.879 M 151.506 321.12 C 152.442 321.609 153.324 322.356 153.852 323.108 L 154.698 324.311 L 154.698 330.389 C 154.698 338.391 154.659 338.569 152.89 338.569 L 151.528 338.569 L 151.921 337.263 C 152.528 335.244 152.478 325.184 151.856 324.296 C 150.829 322.829 147.584 322.139 145.722 322.991 L 144.881 323.377 L 145.814 323.399 C 147.873 323.45 149.023 325.867 147.963 327.916 C 146.652 330.451 142.329 329.594 141.785 326.69 C 140.906 322.008 146.772 318.647 151.506 321.12 M 162.953 320.747 C 164.137 321.359 164.205 321.692 164.367 327.68 C 164.532 333.788 164.607 334.045 166.607 335.407 C 168.383 336.616 171.441 336.579 172.686 335.334 C 173.522 334.498 173.722 323.98 172.944 321.774 L 172.535 320.617 L 173.792 320.617 C 174.898 320.617 175.088 320.71 175.372 321.388 C 175.736 322.254 176.045 333.234 175.751 334.803 C 175.078 338.389 169.743 339.721 165.174 337.442 L 163.307 336.512 L 162.43 337.249 C 161.647 337.908 160.016 338.564 159.149 338.568 C 158.829 338.569 158.496 337.701 158.489 336.847 C 158.487 336.583 158.797 336.308 159.216 336.203 C 161.582 335.609 162.132 334.381 162.132 329.689 L 162.132 326.083 L 160.876 326.183 C 158.294 326.388 156.756 322.882 158.613 321.025 C 159.429 320.209 161.64 320.068 162.953 320.747 M 187.901 320.588 C 188.852 321.191 187.76 322.822 186.517 322.655 C 184.442 322.376 184.292 322.75 184.292 328.202 L 184.292 332.895 L 185.732 332.873 C 188.035 332.838 189.366 335.304 188.21 337.463 C 187.181 339.387 183.448 339.166 182.276 337.112 C 181.856 336.375 181.735 324.182 182.134 322.748 C 182.679 320.789 186.16 319.485 187.901 320.588 M 204.704 320.764 C 207.302 321.536 208.696 323.206 208.696 325.549 C 208.696 328.647 206.536 330.209 198.649 332.812 C 196.903 333.388 195.136 334.154 194.722 334.515 L 193.969 335.17 L 194.603 335.813 C 195.673 336.897 198.196 336.736 200.844 335.414 C 205.557 333.06 208.903 334.509 208.57 338.758 C 208.432 340.514 208.491 341.293 208.823 342.088 C 209.062 342.659 209.257 343.17 209.257 343.225 C 209.257 343.377 207.637 344.18 207.33 344.18 C 206.686 344.18 206.096 341.683 206.233 339.541 C 206.446 336.222 205.164 335.761 201.262 337.755 C 196.939 339.965 191.865 338.587 191.865 335.203 C 191.865 333.19 194.167 331.637 199.549 330.02 C 208.689 327.274 209.116 322.721 200.234 322.721 C 196.562 322.721 196.246 322.835 197.33 323.768 C 199.485 325.621 198.098 328.847 195.135 328.876 C 191.171 328.916 190.578 324.016 194.284 321.844 C 196.887 320.319 201.57 319.834 204.704 320.764 M 222.042 320.869 C 225.389 322.389 225.913 323.908 225.727 331.557 C 225.554 338.674 225.582 338.569 223.824 338.569 L 222.467 338.569 L 222.872 337.237 C 223.49 335.199 223.453 325.194 222.824 324.296 C 221.796 322.829 218.552 322.139 216.69 322.991 L 215.849 323.377 L 216.782 323.399 C 218.84 323.45 219.991 325.867 218.931 327.916 C 217.797 330.109 213.998 329.818 213.014 327.462 C 211.115 322.918 217.035 318.595 222.042 320.869 M 255.606 321.154 L 256.522 321.972 L 256.662 327.676 C 256.82 334.106 256.979 334.624 259.1 335.631 C 261.287 336.668 264.627 336.288 265.361 334.917 C 265.831 334.039 265.713 323.423 265.217 322.02 C 264.986 321.364 264.797 320.773 264.797 320.707 C 264.797 320.641 265.391 320.625 266.118 320.672 C 267.848 320.784 267.82 320.651 267.854 328.941 L 267.882 335.721 L 267.174 336.563 C 265.223 338.881 260.964 339.273 257.428 337.459 L 255.608 336.526 L 254.662 337.24 C 253.322 338.252 251.373 338.805 251.034 338.27 C 250.431 337.317 250.758 336.482 251.959 335.905 C 254.023 334.913 254.265 334.311 254.368 329.921 L 254.458 326.08 L 253.226 326.178 C 250.98 326.356 249.483 324.364 250.21 322.162 C 250.879 320.133 253.842 319.58 255.606 321.154 M 280.148 320.564 C 281.165 321.21 280.009 322.8 278.634 322.645 C 276.659 322.422 276.578 322.645 276.578 328.267 L 276.578 333.004 L 277.39 332.825 C 280.696 332.099 282.235 336.98 279.191 338.537 C 277.57 339.365 275.172 338.46 274.457 336.749 C 273.957 335.553 273.882 324.751 274.362 323.024 C 274.984 320.783 278.284 319.38 280.148 320.564 M 296.883 320.734 C 300.408 321.795 301.998 324.98 300.349 327.679 C 299.211 329.541 296.924 330.83 291.725 332.538 C 286.543 334.241 285.304 335.16 286.981 336.058 C 288.515 336.879 290.346 336.705 292.798 335.505 C 297.855 333.03 301.184 334.478 300.817 338.995 C 300.667 340.852 300.72 341.494 301.086 342.228 C 301.337 342.732 301.543 343.194 301.543 343.255 C 301.543 343.375 299.706 344.18 299.434 344.18 C 298.935 344.18 298.457 341.995 298.457 339.71 C 298.457 336.128 297.398 335.7 293.548 337.728 C 289.26 339.987 284.151 338.699 284.151 335.36 C 284.151 333.114 285.769 331.972 291.725 330.014 C 297.834 328.006 299.429 326.695 298.335 324.58 C 297.511 322.985 293.477 322.135 289.7 322.759 L 288.656 322.932 L 289.468 323.69 C 291.63 325.71 290.481 328.613 287.381 328.963 C 283.568 329.392 282.923 323.883 286.544 321.812 C 289.084 320.359 293.951 319.851 296.883 320.734 M 317.654 320.738 C 321.717 321.961 322.721 323.719 322.721 329.615 L 322.721 333.984 L 321.869 335.365 C 317.989 341.651 301.785 338.479 305.198 332.102 C 306.926 328.872 312.322 331.675 310.686 334.953 C 310.126 336.075 310.069 336.028 312.45 336.397 C 317.7 337.209 320.337 335.128 320.337 330.17 L 320.337 327.353 L 319.104 328.294 C 313.153 332.837 302.074 328.776 305.463 323.293 C 306.972 320.851 313.49 319.485 317.654 320.738 M 79.783 322.234 C 78.689 322.984 79.571 324.769 80.874 324.442 C 81.739 324.225 82.164 323.087 81.624 322.437 C 81.258 321.996 80.288 321.889 79.783 322.234 M 121.795 322.356 C 121.012 323.139 122.248 324.496 123.408 324.128 C 124.532 323.771 123.96 322.02 122.721 322.02 C 122.397 322.02 121.98 322.171 121.795 322.356 M 159.944 322.356 C 159.157 323.143 159.75 324.544 160.87 324.544 C 161.621 324.544 162.132 324.034 162.132 323.282 C 162.132 322.53 161.621 322.02 160.87 322.02 C 160.546 322.02 160.129 322.171 159.944 322.356 M 252.187 322.425 C 251.744 322.958 251.913 323.99 252.503 324.36 C 253.211 324.804 254.418 324.164 254.418 323.344 C 254.418 322.129 252.938 321.519 252.187 322.425 M 233.521 323.084 C 230.913 323.975 231.869 325.033 235.532 325.311 C 238.326 325.523 241.795 324.485 241.795 323.436 C 241.795 322.572 235.772 322.315 233.521 323.084 M 310.027 323.108 C 305.496 324.674 306.546 327.514 311.778 327.84 C 315.62 328.08 320.273 325.932 319.328 324.356 C 318.41 322.824 312.964 322.094 310.027 323.108 M 194.296 325.012 C 193.874 325.434 194.124 326.776 194.681 327.074 C 195.891 327.722 197.209 326.276 196.35 325.242 C 196 324.82 194.641 324.668 194.296 325.012 M 286.385 325.405 C 286.002 326.122 286.693 327.349 287.481 327.349 C 288.388 327.349 289.06 326.336 288.69 325.525 C 288.275 324.614 286.848 324.54 286.385 325.405 M 144.357 325.698 C 143.687 326.654 144.267 327.617 145.518 327.625 C 145.919 327.628 146.268 327.383 146.458 326.964 C 147.135 325.479 145.289 324.367 144.357 325.698 M 215.308 325.546 C 214.458 326.396 215.126 327.63 216.436 327.63 C 217.332 327.63 217.871 326.563 217.41 325.702 C 217.031 324.993 215.941 324.912 215.308 325.546 M 307.048 332.824 C 306.115 333.757 306.677 334.923 308.06 334.923 C 308.624 334.923 308.925 334.74 309.099 334.292 C 309.602 332.993 308.015 331.857 307.048 332.824 M 103.226 334.923 C 102.55 335.598 102.54 335.741 103.101 336.543 C 103.796 337.534 105.47 336.94 105.47 335.702 C 105.47 335.386 104.398 334.362 104.067 334.362 C 103.913 334.362 103.534 334.614 103.226 334.923 M 233.941 334.576 C 232.895 334.95 232.781 336.473 233.765 336.921 C 234.736 337.364 235.686 336.799 235.571 335.847 C 235.473 335.041 234.583 334.346 233.941 334.576 M 121.691 335.338 C 121.403 335.97 121.439 336.15 121.957 336.668 C 122.863 337.574 124.055 336.984 123.931 335.692 C 123.809 334.429 122.219 334.178 121.691 335.338 M 184.575 335.059 C 184.109 335.621 184.44 336.806 185.123 337.023 C 186.369 337.419 187.386 335.886 186.48 334.979 C 186.015 334.514 184.992 334.557 184.575 335.059 M 276.914 334.979 C 276.008 335.886 277.025 337.419 278.271 337.023 C 278.955 336.806 279.285 335.621 278.819 335.059 C 278.402 334.557 277.379 334.514 276.914 334.979" stroke-linecap="round" />
</g>
</svg>