<svg viewBox="0 0 24 24" xmlns="http://www.w3.org/2000/svg"><path d="M22 9h-3V2a1 1 0 0 0-1.6-.8l-2.07 1.55C12.21.42 13.1.42 10 2.75 6.89.42 7.77.42 4.66 2.75L2.6 1.2A1 1 0 0 0 1 2v18a3 3 0 0 0 3 3h16a3 3 0 0 0 3-3V10a1 1 0 0 0-1-1ZM4 21a1 1 0 0 1-1-1V4c2 1.47 1.41 1.44 4.33-.75 3.1 2.33 2.22 2.33 5.33 0 3 2.24 2.42 2.19 4.34.75 0 16.75-.08 16.3.17 17Zm17-1a1 1 0 0 1-2 0v-9h2Z" fill="#ffffff" class="fill-000000"></path><path d="M6 10h3a1 1 0 0 0 0-2H6a1 1 0 0 0 0 2ZM14 12H6a1 1 0 0 0 0 2h8a1 1 0 0 0 0-2ZM14 16H6a1 1 0 0 0 0 2h8a1 1 0 0 0 0-2Z" fill="#ffffff" class="fill-000000"></path></svg>