<svg viewBox="0 0 32 32" xml:space="preserve" xmlns="http://www.w3.org/2000/svg"><path d="M21 26v4c0 .55-.45 1-1 1h-8c-.55 0-1-.45-1-1v-4c0-.55.45-1 1-1h8c.55 0 1 .45 1 1zM14 3.5V10c0 .55-.45 1-1 1h-3c-.55 0-1-.45-1-1V3.5a2.5 2.5 0 0 1 5 0zM23 3.5V10c0 .55-.45 1-1 1h-3c-.55 0-1-.45-1-1V3.5a2.5 2.5 0 0 1 5 0z" fill="#ffffff" class="fill-ffb841"></path><path d="m26.88 15.48-6 11c-.18.32-.51.52-.88.52h-8c-.37 0-.7-.2-.88-.52l-6-11c-.17-.31-.16-.69.02-.99S5.65 14 6 14h20c.35 0 .68.19.86.49s.19.68.02.99z" fill="#ffffff" class="fill-e0554f"></path><path d="M27 10v5c0 .55-.45 1-1 1H6c-.55 0-1-.45-1-1v-5c0-.55.45-1 1-1h20c.55 0 1 .45 1 1z" fill="#ffffff" class="fill-bc494f"></path></svg>