<svg id="svg" version="1.1" xmlns="http://www.w3.org/2000/svg" xmlns:xlink="http://www.w3.org/1999/xlink" width="400" height="356.43564356435644" viewBox="0, 0, 400,356.43564356435644"><g id="svgg"><path id="path0" d="M354.205 22.221 C 352.239 23.406,345.312 27.750,343.564 28.894 C 342.929 29.310,339.216 31.656,335.314 34.108 C 331.411 36.559,326.955 39.371,325.413 40.355 C 323.870 41.340,317.261 45.534,310.726 49.675 C 288.721 63.618,289.048 63.399,289.302 64.026 C 289.412 64.299,289.562 64.670,289.636 64.851 C 289.739 65.107,276.962 73.613,271.976 76.607 C 271.487 76.902,266.313 80.206,260.479 83.951 C 254.644 87.695,249.783 90.759,249.675 90.759 C 249.568 90.759,248.186 91.621,246.605 92.676 C 245.023 93.730,241.873 95.748,239.604 97.162 C 237.335 98.575,233.684 100.869,231.491 102.258 C 229.298 103.648,224.917 106.410,221.755 108.395 C 209.966 115.797,203.197 120.081,193.399 126.341 C 176.570 137.094,164.816 144.611,158.746 148.504 C 155.569 150.542,152.102 152.751,151.042 153.415 C 149.981 154.078,146.714 156.190,143.781 158.108 C 140.848 160.026,137.483 162.171,136.304 162.875 C 129.873 166.712,107.792 180.749,107.686 181.067 C 107.633 181.227,127.279 181.395,152.379 181.449 C 177.013 181.502,197.218 181.596,197.279 181.658 C 197.341 181.719,194.822 183.745,191.682 186.159 C 188.543 188.573,184.117 191.979,181.848 193.729 C 179.579 195.478,174.752 199.193,171.122 201.983 C 167.492 204.772,162.888 208.321,160.891 209.868 C 158.894 211.415,152.137 216.609,145.875 221.410 C 139.612 226.211,133.251 231.099,131.738 232.271 L 128.987 234.403 130.252 235.704 C 130.949 236.419,132.288 237.599,133.228 238.326 L 134.938 239.649 140.819 235.879 C 144.053 233.806,150.190 229.811,154.455 227.001 C 162.283 221.845,168.220 217.959,176.065 212.853 C 181.817 209.110,188.308 204.866,195.875 199.902 C 205.036 193.892,214.477 187.779,217.639 185.809 C 218.076 185.536,220.486 183.990,222.996 182.373 C 225.505 180.755,230.454 177.575,233.993 175.306 C 242.661 169.749,253.770 162.440,254.785 161.627 L 255.611 160.966 250.660 161.189 C 247.937 161.311,244.670 161.473,243.399 161.548 C 242.129 161.623,239.381 161.773,237.294 161.880 C 235.206 161.988,231.419 162.210,228.878 162.375 C 226.337 162.539,222.624 162.761,220.627 162.868 C 218.630 162.975,214.843 163.206,212.211 163.380 C 209.579 163.554,203.564 163.919,198.845 164.191 C 194.125 164.462,189.299 164.754,188.119 164.839 C 186.939 164.924,184.488 165.078,182.673 165.180 C 175.008 165.614,173.649 165.694,171.452 165.840 C 170.182 165.925,167.657 166.074,165.842 166.173 C 164.026 166.271,160.094 166.487,157.102 166.653 C 152.207 166.925,151.080 166.905,151.513 166.556 C 151.739 166.373,174.800 153.234,183.333 148.426 C 187.690 145.971,192.219 143.404,193.399 142.722 C 195.233 141.662,211.957 132.234,225.248 124.768 C 237.666 117.792,270.561 99.189,278.464 94.672 C 282.865 92.157,286.534 90.099,286.618 90.099 C 286.702 90.099,289.561 88.524,292.972 86.599 C 296.384 84.674,299.843 82.728,300.660 82.274 C 301.477 81.820,303.084 80.926,304.231 80.287 L 306.316 79.126 306.811 79.833 C 307.300 80.530,307.319 80.531,308.191 79.924 C 308.678 79.585,310.338 78.634,311.881 77.811 C 313.424 76.989,316.172 75.465,317.987 74.425 C 321.918 72.173,340.646 61.582,343.234 60.147 C 344.233 59.594,345.941 58.636,347.030 58.019 C 348.119 57.402,349.233 56.792,349.505 56.663 C 349.777 56.534,350.446 56.137,350.990 55.781 C 351.535 55.425,352.723 54.737,353.630 54.252 C 355.328 53.346,368.961 45.773,370.873 44.675 C 372.900 43.509,372.297 43.238,367.574 43.190 C 365.169 43.165,362.830 43.119,362.376 43.087 C 361.922 43.054,358.729 42.998,355.281 42.961 C 346.880 42.871,347.333 43.913,351.309 33.828 C 352.168 31.650,353.029 29.422,353.223 28.878 C 353.416 28.333,353.827 27.294,354.135 26.568 C 354.443 25.842,354.883 24.653,355.113 23.927 C 355.343 23.201,355.675 22.427,355.850 22.206 C 356.609 21.248,355.807 21.255,354.205 22.221 M345.621 158.416 C 345.621 159.051,345.689 159.311,345.772 158.993 C 345.855 158.676,345.855 158.156,345.772 157.838 C 345.689 157.521,345.621 157.781,345.621 158.416 M74.004 169.307 C 74.004 169.942,74.072 170.202,74.155 169.884 C 74.238 169.567,74.238 169.047,74.155 168.729 C 74.072 168.412,74.004 168.672,74.004 169.307 M86.304 262.511 C 83.181 264.779,65.109 277.667,29.043 303.348 C 20.239 309.616,12.481 315.103,11.803 315.541 C 11.124 315.978,10.567 316.539,10.565 316.787 C 10.562 317.157,10.694 317.151,11.304 316.751 C 12.764 315.795,16.852 313.310,29.373 305.769 C 36.361 301.559,50.396 293.097,60.561 286.963 C 70.726 280.829,82.607 273.663,86.964 271.039 C 91.320 268.414,95.072 266.114,95.302 265.928 C 95.733 265.577,90.656 260.063,89.934 260.098 C 89.752 260.107,88.119 261.193,86.304 262.511 " stroke="none" fill="#e91d24" fill-rule="evenodd"></path><path id="path1" d="M180.412 13.449 C 180.323 13.767,179.773 17.294,179.189 21.287 C 178.604 25.281,178.080 28.603,178.022 28.670 C 177.935 28.773,174.641 29.337,169.307 30.164 C 166.346 30.622,161.414 31.798,157.426 32.997 C 155.520 33.570,153.144 34.263,152.145 34.537 C 151.147 34.812,150.189 35.173,150.017 35.340 C 149.844 35.507,149.495 35.644,149.240 35.644 C 148.985 35.644,146.922 36.386,144.655 37.294 C 142.389 38.201,140.424 38.944,140.290 38.944 C 140.155 38.944,137.863 36.048,135.195 32.508 C 132.527 28.969,130.218 26.073,130.064 26.073 C 128.583 26.073,106.451 39.041,106.348 39.969 C 106.300 40.403,107.167 43.061,108.274 45.875 C 111.285 53.524,111.994 55.446,111.848 55.555 C 103.315 61.938,92.103 72.885,86.330 80.471 C 84.110 83.388,85.570 83.592,74.191 78.766 C 71.340 77.557,68.816 76.569,68.580 76.570 C 68.345 76.572,66.815 78.897,65.182 81.738 C 63.548 84.579,60.540 89.738,58.498 93.204 C 54.598 99.822,54.408 100.304,55.405 101.032 C 56.904 102.128,67.190 110.656,67.447 111.016 C 67.626 111.267,67.176 112.828,66.241 115.196 C 62.685 124.208,59.836 134.800,58.260 144.876 C 57.962 146.777,57.677 148.374,57.625 148.426 C 57.545 148.506,53.272 149.079,48.185 149.691 C 47.368 149.790,45.363 150.048,43.729 150.265 L 40.759 150.660 40.673 164.432 L 40.587 178.203 41.333 178.374 C 42.351 178.606,53.952 180.535,55.688 180.761 C 57.577 181.007,57.542 180.927,58.540 187.309 C 59.935 196.221,64.528 212.701,66.894 217.282 C 67.163 217.802,67.259 218.337,67.107 218.470 C 66.956 218.604,63.936 220.909,60.396 223.593 C 56.856 226.276,53.844 228.575,53.703 228.702 C 53.561 228.828,54.396 230.627,55.558 232.700 C 59.590 239.892,66.715 252.311,66.938 252.537 C 67.061 252.662,70.503 251.495,74.587 249.944 C 78.672 248.393,82.317 247.054,82.689 246.969 C 83.231 246.844,83.967 247.565,86.384 250.590 C 93.369 259.327,99.839 265.758,108.024 272.097 C 111.076 274.461,111.188 273.008,107.249 282.172 C 105.428 286.410,104.054 289.987,104.196 290.120 C 104.449 290.355,118.974 298.813,123.597 301.416 C 124.868 302.132,126.360 302.990,126.912 303.324 L 127.916 303.930 133.160 297.509 C 136.044 293.978,138.526 291.089,138.677 291.089 C 138.827 291.089,141.362 292.034,144.310 293.188 C 154.392 297.137,161.465 299.137,172.041 301.031 C 176.760 301.877,176.382 301.548,176.739 305.116 C 176.849 306.205,176.998 307.393,177.071 307.756 C 177.144 308.119,177.275 309.084,177.362 309.901 C 178.180 317.535,178.245 317.819,179.166 317.866 C 182.510 318.037,202.203 318.103,203.817 317.949 L 205.819 317.758 207.041 310.133 C 208.408 301.596,208.116 302.140,211.515 301.790 C 212.896 301.648,214.101 301.512,214.191 301.488 C 214.282 301.465,215.173 301.329,216.172 301.187 C 223.970 300.078,239.039 295.928,245.812 293.025 C 246.624 292.677,247.321 292.434,247.360 292.483 C 247.400 292.533,249.481 295.322,251.985 298.680 C 254.489 302.038,256.576 304.834,256.623 304.894 C 256.670 304.954,257.055 304.787,257.480 304.523 C 257.904 304.259,261.815 301.998,266.172 299.499 C 281.445 290.738,280.574 291.360,279.881 289.702 C 279.621 289.080,276.368 280.669,275.239 277.699 C 274.959 276.963,275.284 276.630,279.786 273.024 C 287.500 266.848,297.035 257.227,302.869 249.734 L 303.590 248.808 310.458 251.761 C 315.581 253.964,317.420 254.619,317.693 254.338 C 317.895 254.130,320.250 250.173,322.927 245.545 C 325.604 240.916,328.608 235.744,329.604 234.051 C 330.599 232.358,331.363 230.938,331.301 230.894 C 330.588 230.392,321.689 223.083,320.926 222.373 L 319.906 221.423 321.942 216.405 C 325.785 206.934,328.318 197.529,330.447 184.825 L 330.861 182.356 333.665 181.975 C 335.207 181.765,338.511 181.336,341.007 181.021 L 345.545 180.449 345.596 167.865 C 345.624 160.943,345.667 154.864,345.690 154.354 C 345.750 153.019,345.707 153.005,338.284 151.829 C 334.563 151.239,331.416 150.661,331.291 150.543 C 331.166 150.426,330.675 147.805,330.201 144.719 C 328.750 135.282,325.901 124.647,322.324 115.310 C 321.481 113.112,320.792 111.234,320.792 111.137 C 320.792 111.039,323.403 109.002,326.593 106.609 C 330.627 103.584,332.338 102.112,332.209 101.777 C 332.107 101.511,330.367 98.441,328.343 94.954 C 326.318 91.467,323.383 86.352,321.819 83.588 C 320.256 80.824,318.847 78.559,318.689 78.555 C 318.531 78.551,315.932 79.496,312.914 80.655 C 309.895 81.814,306.710 83.003,305.836 83.299 C 304.962 83.594,301.902 85.167,299.035 86.794 C 296.169 88.422,293.543 89.860,293.199 89.990 C 292.855 90.120,288.787 92.396,284.158 95.047 C 279.530 97.698,274.592 100.518,273.185 101.313 C 270.105 103.053,270.130 102.628,272.892 106.352 C 296.724 138.485,298.985 182.312,278.558 216.172 C 262.466 242.844,236.478 259.495,205.116 263.227 C 201.443 263.664,188.084 263.898,186.139 263.559 C 185.685 263.480,184.422 263.325,183.333 263.214 C 143.417 259.141,108.841 228.790,98.856 189.061 C 98.205 186.471,97.492 184.240,97.271 184.104 C 96.987 183.928,96.973 183.753,97.222 183.504 C 97.472 183.254,97.451 182.553,97.151 181.097 C 95.982 175.433,95.717 159.522,96.687 153.300 C 97.487 148.166,97.802 146.525,98.744 142.574 C 103.131 124.178,115.127 104.230,128.430 93.210 C 129.947 91.954,131.485 90.653,131.848 90.320 C 136.525 86.023,148.372 78.743,156.106 75.414 C 157.649 74.750,159.356 74.010,159.901 73.769 C 185.420 62.509,222.243 66.315,247.460 82.821 C 249.694 84.282,251.664 85.479,251.840 85.479 C 252.222 85.479,251.871 85.698,267.162 75.904 C 284.538 64.774,286.139 63.718,286.139 63.394 C 286.139 63.069,282.987 60.258,279.113 57.129 C 277.023 55.441,276.583 54.928,276.755 54.384 C 276.872 54.017,278.140 50.901,279.573 47.462 C 281.006 44.022,282.175 41.106,282.171 40.983 C 282.167 40.860,279.012 38.913,275.158 36.656 C 271.305 34.400,266.018 31.301,263.410 29.770 C 260.784 28.228,258.575 27.128,258.459 27.304 C 257.735 28.413,249.048 38.944,248.858 38.944 C 248.729 38.944,247.160 38.348,245.370 37.620 C 236.691 34.089,227.491 31.569,216.502 29.715 C 214.233 29.332,211.858 28.913,211.225 28.783 L 210.074 28.548 209.151 21.122 C 208.643 17.038,208.164 13.511,208.085 13.284 C 207.826 12.538,180.620 12.700,180.412 13.449 M176.081 34.003 C 178.210 36.355,173.176 39.375,165.924 40.095 C 163.198 40.366,163.086 40.041,165.347 38.417 C 166.928 37.281,167.427 36.279,166.650 35.798 C 166.459 35.680,165.946 35.968,165.510 36.439 C 164.483 37.547,164.026 37.521,164.026 36.355 C 164.026 34.656,165.979 33.621,167.600 34.459 C 168.676 35.016,168.977 35.568,168.977 36.991 C 168.977 38.132,169.294 38.170,171.281 37.268 C 173.312 36.347,173.845 35.790,174.091 34.331 C 174.325 32.948,175.022 32.833,176.081 34.003 M174.788 41.997 C 173.847 45.390,174.507 49.495,176.929 55.315 C 179.951 62.578,177.140 68.330,171.810 65.788 L 170.660 65.240 169.357 66.417 C 163.687 71.540,157.383 66.420,160.207 58.986 C 161.286 56.145,161.299 56.225,159.723 56.014 C 156.276 55.551,155.822 51.101,159.121 50.113 C 163.718 48.735,165.120 52.214,162.853 59.373 C 161.160 64.718,162.034 66.563,165.842 65.684 C 168.859 64.987,169.055 63.710,167.325 55.984 C 165.591 48.239,165.608 48.496,166.787 48.095 C 168.047 47.668,168.013 47.590,169.453 54.236 C 171.305 62.783,171.710 63.696,173.642 63.696 C 176.022 63.696,176.579 60.796,174.956 56.859 C 171.671 48.893,170.717 42.390,172.716 41.585 C 174.152 41.006,175.016 41.178,174.788 41.997 M192.943 46.249 C 195.934 47.641,196.336 48.869,196.355 56.662 C 196.373 63.854,196.243 64.356,194.375 64.356 C 193.242 64.356,193.053 64.263,193.200 63.779 C 193.800 61.798,193.935 59.999,193.822 55.490 C 193.664 49.175,192.891 47.844,189.389 47.860 C 187.765 47.867,187.242 48.310,188.292 48.788 C 189.300 49.248,190.144 51.056,189.871 52.176 C 188.793 56.609,182.065 54.554,183.013 50.081 C 183.845 46.161,188.716 44.281,192.943 46.249 M215.421 47.178 C 220.069 49.202,221.435 53.256,219.762 60.066 C 217.888 67.699,213.102 68.785,211.350 61.975 C 210.302 57.903,207.325 55.896,204.792 57.556 C 203.719 58.259,203.717 58.820,204.788 58.551 C 208.110 57.717,210.516 61.140,208.387 63.671 C 206.118 66.368,200.990 63.698,200.990 59.820 C 200.990 52.216,211.796 52.970,213.691 60.706 C 214.789 65.186,216.125 64.459,217.331 58.724 C 218.802 51.731,216.579 48.893,209.507 48.736 C 206.751 48.675,205.825 49.065,206.576 49.971 C 206.981 50.459,206.174 52.475,205.574 52.475 C 205.093 52.475,203.300 50.106,203.300 49.472 C 203.300 46.382,210.475 45.025,215.421 47.178 M147.615 51.180 C 147.846 53.723,149.796 57.884,152.509 61.622 C 157.402 68.362,156.536 73.779,150.662 73.173 C 148.972 72.998,148.887 73.028,148.517 73.922 C 147.438 76.527,143.237 78.215,140.343 77.206 C 138.593 76.596,136.739 73.092,137.123 71.122 C 137.194 70.759,137.337 69.605,137.441 68.558 L 137.631 66.654 135.957 66.714 C 132.401 66.839,131.206 62.870,134.328 61.304 C 138.475 59.224,140.364 61.899,140.028 69.375 C 139.777 74.953,140.450 76.086,143.524 75.258 C 147.357 74.226,147.364 72.277,143.564 64.686 C 140.775 59.115,140.244 57.762,140.842 57.751 C 140.978 57.749,141.414 57.660,141.810 57.553 C 142.464 57.378,142.813 57.926,145.549 63.416 C 149.437 71.218,150.674 72.458,152.624 70.509 C 154.160 68.972,153.619 66.931,150.556 62.706 C 148.029 59.221,146.047 55.480,145.388 52.949 C 144.731 50.426,144.733 50.412,145.792 49.755 C 147.221 48.869,147.419 49.025,147.615 51.180 M185.668 50.798 C 184.847 51.705,185.497 52.886,186.738 52.743 C 187.840 52.615,188.170 51.260,187.262 50.596 C 186.488 50.030,186.347 50.048,185.668 50.798 M234.077 51.956 C 236.985 52.994,238.701 55.200,238.716 57.921 C 238.733 60.836,234.428 72.184,233.448 71.809 C 233.170 71.702,232.584 71.525,232.148 71.415 C 231.184 71.173,231.176 71.060,232.029 69.802 C 233.007 68.362,233.504 67.099,234.981 62.305 L 236.303 58.014 235.672 56.588 C 235.015 55.102,234.011 54.380,232.096 54.016 C 230.835 53.776,230.751 53.965,231.758 54.780 C 234.360 56.887,231.131 60.947,227.920 59.606 C 221.923 57.100,227.850 49.734,234.077 51.956 M159.213 52.264 C 158.769 53.422,159.205 54.290,160.231 54.290 C 161.683 54.290,161.758 52.042,160.312 51.876 C 159.735 51.809,159.333 51.951,159.213 52.264 M228.300 55.798 C 227.599 56.212,227.549 57.200,228.202 57.743 C 229.258 58.619,230.881 57.332,230.161 56.188 C 229.716 55.482,229.066 55.345,228.300 55.798 M253.037 60.129 C 256.339 61.346,259.406 65.024,259.406 67.769 C 259.406 71.541,255.028 78.171,251.945 79.067 C 244.713 81.170,235.242 70.420,241.898 67.664 C 245.652 66.108,248.356 71.438,244.883 73.550 L 243.934 74.127 245.811 75.250 C 248.163 76.656,250.771 76.950,252.310 75.981 C 253.511 75.225,256.766 69.528,256.766 68.182 C 256.766 64.467,250.065 60.253,247.483 62.344 C 246.690 62.986,244.884 62.557,244.884 61.726 C 244.884 59.483,249.060 58.665,253.037 60.129 M205.077 60.872 C 204.582 62.164,205.790 63.516,206.738 62.729 C 207.412 62.170,207.413 60.855,206.739 60.596 C 205.879 60.267,205.271 60.367,205.077 60.872 M135.050 62.772 C 134.255 63.566,134.927 65.677,135.974 65.677 C 136.468 65.677,137.294 64.661,137.294 64.054 C 137.294 62.881,135.796 62.026,135.050 62.772 M109.949 66.196 C 110.810 66.372,115.391 68.639,116.658 69.516 C 117.581 70.156,117.739 70.098,118.347 68.894 C 119.709 66.199,121.778 65.504,123.549 67.146 C 124.596 68.116,124.623 68.620,123.762 71.122 C 122.866 73.728,122.791 73.482,125.617 77.215 C 128.616 81.178,128.474 81.073,129.674 80.219 C 132.582 78.148,136.292 81.811,133.746 84.241 C 130.908 86.948,130.084 86.536,124.889 79.817 C 120.140 73.675,120.237 73.890,121.097 71.443 C 122.150 68.448,121.800 67.010,120.597 69.389 C 119.043 72.464,118.315 72.541,113.807 70.101 C 111.799 69.014,109.616 68.101,108.498 67.880 C 106.908 67.566,106.601 67.393,106.601 66.811 C 106.601 65.620,106.877 65.570,109.949 66.196 M242.640 69.703 C 241.811 70.532,242.428 71.947,243.619 71.947 C 244.582 71.947,245.048 70.694,244.365 69.940 C 243.705 69.211,243.202 69.141,242.640 69.703 M130.759 81.254 C 130.111 81.902,130.280 83.431,131.044 83.840 C 132.306 84.515,133.347 82.816,132.453 81.540 C 131.913 80.769,131.341 80.673,130.759 81.254 M77.300 155.508 L 77.393 159.129 80.131 156.584 L 82.869 154.039 83.679 154.800 C 84.813 155.866,84.770 155.971,82.108 158.651 C 79.233 161.546,79.296 161.662,83.829 161.786 C 87.047 161.875,87.285 161.927,87.258 162.541 C 87.174 164.471,87.412 164.356,83.471 164.356 C 81.312 164.356,79.858 164.484,79.923 164.669 C 79.983 164.841,81.102 166.157,82.408 167.595 L 84.783 170.208 83.804 171.145 L 82.826 172.082 80.448 169.787 C 79.140 168.525,78.016 167.380,77.951 167.244 C 77.493 166.287,77.228 167.509,77.228 170.572 C 77.228 174.713,77.315 174.523,75.516 174.280 L 74.126 174.092 74.063 170.792 C 74.028 168.977,73.983 167.347,73.964 167.169 C 73.944 166.992,72.739 168.029,71.286 169.473 L 68.645 172.098 67.600 171.052 L 66.554 170.007 69.086 167.405 C 72.239 164.165,72.309 164.356,67.968 164.356 L 64.318 164.356 64.420 162.954 L 64.521 161.551 67.926 161.502 C 72.224 161.439,72.176 161.554,69.189 158.485 L 66.670 155.896 67.594 155.011 C 68.826 153.830,68.707 153.782,71.447 156.584 C 74.307 159.511,74.257 159.534,74.257 155.247 L 74.257 151.859 75.165 151.749 C 77.163 151.506,77.199 151.569,77.300 155.508 M313.696 155.858 C 313.696 157.809,313.767 159.406,313.854 159.406 C 313.941 159.406,315.135 158.290,316.507 156.925 L 319.002 154.445 320.132 155.610 L 321.261 156.776 318.653 159.400 L 316.045 162.023 319.809 162.117 L 323.573 162.211 323.585 163.696 L 323.597 165.182 319.821 165.275 L 316.045 165.369 318.659 167.999 L 321.274 170.629 320.120 171.783 L 318.966 172.937 316.523 170.462 C 313.440 167.338,313.531 167.303,313.531 171.617 L 313.531 175.248 312.046 175.248 L 310.561 175.248 310.561 171.452 C 310.561 169.142,310.432 167.657,310.231 167.657 C 310.050 167.657,309.901 167.780,309.901 167.931 C 309.901 168.082,308.775 169.218,307.398 170.455 L 304.895 172.704 303.857 171.666 L 302.819 170.628 305.445 167.987 C 308.027 165.390,308.054 165.346,307.088 165.296 C 306.548 165.269,305.957 165.211,305.776 165.169 C 305.594 165.127,304.369 165.076,303.053 165.055 L 300.660 165.017 300.660 163.531 L 300.660 162.046 304.290 162.046 C 308.604 162.046,308.557 162.167,305.449 159.080 L 302.978 156.624 304.034 155.534 L 305.091 154.444 307.826 157.165 L 310.561 159.886 310.561 155.998 L 310.561 152.109 312.129 152.210 L 313.696 152.310 313.696 155.858 M95.934 211.334 L 98.955 217.387 97.498 218.095 L 96.040 218.803 93.857 214.435 C 92.657 212.032,91.632 210.019,91.580 209.961 C 91.469 209.839,88.119 211.504,88.119 211.681 C 88.119 211.746,88.936 213.511,89.934 215.604 C 92.052 220.042,92.039 219.965,90.775 220.619 C 89.269 221.398,89.237 221.367,87.129 217.162 C 86.037 214.983,85.089 213.201,85.022 213.201 C 84.626 213.201,81.213 214.874,81.041 215.153 C 80.927 215.338,81.158 216.125,81.555 216.903 C 81.951 217.681,82.914 219.692,83.694 221.372 L 85.113 224.427 83.778 225.108 C 83.045 225.482,82.396 225.740,82.336 225.681 C 81.985 225.330,76.309 213.353,76.413 213.184 C 76.483 213.071,78.358 212.101,80.579 211.027 C 82.801 209.954,86.334 208.233,88.431 207.203 C 90.528 206.173,92.395 205.319,92.578 205.305 C 92.762 205.292,94.272 208.004,95.934 211.334 M296.421 207.599 L 297.627 207.935 296.933 209.578 C 296.330 211.005,296.114 211.221,295.292 211.221 C 292.899 211.221,290.623 215.156,292.240 216.498 C 293.119 217.228,294.286 216.551,296.586 213.977 C 299.828 210.349,301.954 209.531,304.614 210.888 C 310.831 214.059,306.529 225.658,299.526 224.608 C 297.653 224.327,297.569 224.175,298.259 222.313 C 298.817 220.807,298.838 220.792,300.339 220.792 C 303.274 220.792,305.519 216.740,303.630 214.851 C 302.466 213.687,301.753 214.023,298.813 217.120 C 295.665 220.437,294.133 221.194,291.997 220.489 C 286.113 218.547,288.419 208.580,295.050 207.296 C 295.140 207.279,295.757 207.415,296.421 207.599 M100.644 220.274 C 101.197 221.078,101.650 221.819,101.650 221.920 C 101.650 222.021,98.940 223.906,95.627 226.110 C 92.314 228.313,89.488 230.221,89.346 230.349 C 89.204 230.477,90.219 232.248,91.601 234.284 C 94.278 238.227,94.289 238.287,92.481 239.348 L 91.512 239.917 87.971 234.603 C 85.015 230.166,84.503 229.217,84.872 228.848 C 85.202 228.518,99.202 218.985,99.572 218.838 C 99.608 218.824,100.091 219.470,100.644 220.274 M292.409 222.678 C 299.236 226.000,300.655 233.026,295.532 238.149 C 292.059 241.622,286.889 241.195,282.480 237.070 C 275.175 230.238,283.411 218.300,292.409 222.678 M285.445 226.162 C 282.077 228.412,282.534 232.748,286.399 235.227 C 289.895 237.467,293.005 236.989,294.566 233.970 C 296.893 229.471,289.704 223.316,285.445 226.162 M112.548 235.879 L 116.914 241.066 115.813 241.985 C 114.336 243.217,114.599 243.371,111.177 239.274 C 109.509 237.277,108.082 235.644,108.006 235.644 C 107.929 235.644,107.209 236.183,106.405 236.841 L 104.943 238.039 106.432 239.812 C 107.251 240.787,108.594 242.385,109.416 243.364 L 110.911 245.144 109.640 246.150 L 108.370 247.156 105.615 243.861 C 102.187 239.760,102.628 239.941,100.501 241.759 L 98.699 243.298 101.972 247.185 L 105.246 251.073 104.520 251.707 C 102.699 253.301,103.052 253.507,98.646 248.286 C 96.396 245.618,94.366 243.176,94.135 242.857 C 93.761 242.341,94.190 241.889,98.061 238.713 C 100.452 236.753,103.611 234.155,105.081 232.941 C 106.552 231.727,107.852 230.725,107.969 230.713 C 108.087 230.702,110.148 233.027,112.548 235.879 M276.783 239.462 C 291.684 245.208,290.714 244.656,289.132 246.477 L 287.892 247.905 285.752 247.159 L 283.613 246.412 281.328 248.816 C 278.541 251.748,278.661 251.408,279.700 253.459 C 280.692 255.417,280.613 255.904,279.059 257.410 L 277.925 258.509 276.706 255.905 C 276.035 254.472,274.644 251.518,273.613 249.340 C 272.582 247.162,271.241 244.297,270.633 242.974 L 269.528 240.569 270.804 239.261 C 272.376 237.652,272.062 237.642,276.783 239.462 M275.641 245.354 C 277.287 248.674,277.041 248.571,278.877 246.701 C 280.537 245.009,280.513 244.949,277.723 243.800 C 273.931 242.238,274.051 242.148,275.641 245.354 M121.947 245.134 C 125.893 247.081,127.894 250.983,126.700 254.406 C 126.285 255.599,126.101 255.644,124.654 254.909 C 122.900 254.019,122.766 253.841,123.173 252.946 C 124.018 251.093,122.261 248.462,119.859 247.982 C 117.086 247.427,112.721 251.239,112.053 254.799 C 111.533 257.570,114.801 259.977,117.523 258.827 L 119.118 258.153 119.955 259.581 C 121.047 261.443,121.034 261.507,119.398 262.244 C 114.480 264.459,108.610 260.359,108.588 254.694 C 108.564 248.272,116.621 242.506,121.947 245.134 M263.149 256.700 C 265.479 259.641,267.506 262.046,267.653 262.046 C 267.799 262.046,269.408 260.858,271.227 259.406 C 273.046 257.954,274.658 256.774,274.809 256.784 C 275.216 256.811,276.639 258.703,276.512 259.049 C 276.373 259.430,267.027 266.997,266.695 266.997 C 266.559 266.997,263.950 263.854,260.896 260.013 L 255.343 253.029 256.761 251.707 C 257.954 250.595,258.237 250.462,258.545 250.869 C 258.746 251.136,260.818 253.760,263.149 256.700 M135.770 255.456 C 138.985 257.641,142.382 259.730,143.318 260.099 C 146.885 261.505,152.840 264.763,153.397 265.613 C 155.450 268.747,153.029 273.230,149.237 273.315 C 147.764 273.348,147.522 273.439,147.705 273.888 C 148.362 275.503,148.559 276.383,148.971 279.538 C 149.513 283.685,149.697 283.394,147.285 282.197 L 145.298 281.211 144.924 278.642 C 143.696 270.217,141.913 268.769,139.394 274.151 C 138.559 275.934,137.818 277.455,137.749 277.531 C 137.632 277.659,134.323 276.224,134.323 276.046 C 134.323 276.002,135.951 272.500,137.939 268.264 C 139.928 264.027,141.245 260.957,140.865 261.442 L 140.175 262.322 137.905 260.813 C 136.657 259.983,135.589 259.364,135.532 259.437 C 135.474 259.511,134.040 261.576,132.344 264.026 C 130.648 266.477,128.752 269.189,128.131 270.053 L 127.001 271.625 125.670 270.878 C 124.939 270.468,124.273 269.960,124.192 269.749 C 124.068 269.427,127.985 263.390,131.412 258.622 C 132.506 257.100,132.542 257.179,130.041 255.568 C 127.778 254.110,127.804 254.170,128.795 252.640 C 129.746 251.172,129.052 250.892,135.770 255.456 M250.348 260.809 C 251.388 262.851,252.799 265.570,253.485 266.851 C 256.163 271.854,255.280 274.747,250.355 277.108 C 244.903 279.721,243.379 278.793,238.493 269.892 C 235.051 263.620,235.179 264.159,236.890 263.182 C 238.733 262.130,238.623 262.089,239.789 264.277 C 242.869 270.057,245.010 273.648,245.640 274.089 C 247.573 275.443,251.155 273.681,251.155 271.377 C 251.155 270.562,250.751 269.694,247.372 263.261 C 246.150 260.934,245.242 258.938,245.356 258.825 C 245.645 258.535,247.973 257.165,248.239 257.127 C 248.360 257.110,249.309 258.767,250.348 260.809 M143.360 265.898 C 142.314 268.265,142.367 268.363,145.265 269.418 C 148.263 270.509,149.013 270.521,149.688 269.491 C 150.790 267.809,149.661 266.440,145.770 264.739 L 144.180 264.044 143.360 265.898 M160.315 267.185 L 161.389 267.624 160.765 269.208 C 160.422 270.079,159.058 273.837,157.733 277.558 C 154.889 285.548,155.393 284.678,153.880 284.212 C 151.478 283.473,151.466 283.866,154.103 276.512 C 158.307 264.787,157.482 266.026,160.315 267.185 M233.325 267.444 C 236.921 269.297,239.374 276.289,237.773 280.122 C 236.744 282.584,235.522 283.394,229.673 285.489 L 226.053 286.786 225.739 286.050 C 224.960 284.225,219.802 270.058,219.802 269.745 C 219.802 269.390,221.472 268.726,226.238 267.186 C 229.308 266.194,231.021 266.257,233.325 267.444 M171.285 269.667 C 174.232 270.299,176.497 272.602,177.018 275.495 L 177.211 276.568 175.239 276.568 C 173.476 276.568,173.267 276.497,173.267 275.896 C 173.267 271.659,167.007 271.584,165.143 275.799 C 162.136 282.597,167.471 288.789,171.476 283.150 L 172.161 282.186 173.704 283.165 C 175.563 284.344,175.564 284.346,174.010 285.953 C 169.044 291.087,160.386 287.381,160.400 280.126 C 160.414 272.682,164.962 268.311,171.285 269.667 M227.888 269.940 C 227.343 270.082,226.341 270.436,225.662 270.725 L 224.425 271.252 225.941 275.478 C 226.774 277.802,227.680 280.339,227.954 281.117 C 228.524 282.733,228.528 282.733,231.894 281.194 C 237.196 278.769,233.528 268.466,227.888 269.940 M212.642 272.023 C 212.878 273.786,213.057 273.702,207.563 274.403 L 202.932 274.994 203.158 276.853 C 203.446 279.236,202.969 279.086,208.123 278.420 C 210.588 278.102,212.648 277.889,212.700 277.947 C 212.851 278.114,213.272 280.857,213.148 280.864 C 212.286 280.906,204.204 282.155,204.096 282.262 C 203.947 282.411,204.494 286.791,204.683 286.961 C 204.739 287.011,206.989 286.761,209.682 286.404 C 212.375 286.048,214.653 285.830,214.743 285.920 C 215.059 286.236,215.266 288.779,214.977 288.799 C 214.817 288.810,211.716 289.235,208.086 289.742 C 204.455 290.249,201.447 290.635,201.399 290.599 C 201.352 290.562,200.941 287.873,200.485 284.623 C 200.030 281.372,199.547 278.045,199.414 277.228 L 199.170 275.743 196.450 275.647 C 194.407 275.575,193.724 275.657,193.706 275.977 C 193.694 276.211,193.624 277.665,193.551 279.208 C 193.479 280.751,193.325 283.988,193.210 286.402 L 193.000 290.791 191.302 290.693 L 189.604 290.594 189.721 282.921 L 189.839 275.248 187.164 275.248 L 184.488 275.248 184.488 273.597 C 184.488 271.665,183.560 271.829,192.079 272.257 C 197.504 272.529,198.255 272.490,204.455 271.619 C 213.186 270.393,212.418 270.355,212.642 272.023 M183.452 272.140 C 183.766 272.241,183.841 272.605,183.701 273.353 C 183.592 273.941,182.980 277.976,182.342 282.319 C 181.704 286.662,181.133 290.264,181.075 290.323 C 180.927 290.470,177.899 289.890,177.683 289.674 C 177.586 289.578,178.039 285.694,178.688 281.043 C 179.337 276.392,179.868 272.359,179.868 272.081 C 179.868 271.601,181.871 271.633,183.452 272.140 " stroke="none" fill="#fbf304" fill-rule="evenodd"></path><path id="path2" d="M188.416 70.767 C 188.343 70.838,186.852 70.992,185.102 71.109 C 183.351 71.226,180.307 71.623,178.336 71.991 C 176.365 72.360,174.082 72.783,173.263 72.932 C 171.748 73.208,170.756 73.487,165.550 75.103 C 160.699 76.610,150.628 81.098,148.169 82.850 C 147.668 83.206,147.174 83.498,147.072 83.498 C 146.814 83.498,140.618 87.456,139.425 88.383 C 138.888 88.800,137.112 90.159,135.479 91.403 C 127.853 97.209,120.223 105.418,115.063 113.366 C 114.356 114.455,113.499 115.749,113.159 116.241 C 112.819 116.733,112.541 117.229,112.541 117.345 C 112.541 117.460,112.262 117.949,111.920 118.431 C 107.817 124.219,102.068 139.983,100.468 149.835 C 100.212 151.408,100.015 152.830,99.851 154.290 C 99.749 155.198,99.588 156.535,99.493 157.261 C 98.885 161.895,99.289 175.114,100.187 179.950 C 100.444 181.339,100.432 181.330,101.424 180.811 C 102.217 180.397,103.963 179.291,111.961 174.136 C 113.547 173.114,114.915 172.277,114.999 172.277 C 115.084 172.277,116.352 171.498,117.816 170.545 C 119.280 169.592,121.254 168.331,122.203 167.742 C 123.151 167.154,125.902 165.409,128.315 163.864 C 130.728 162.320,132.767 161.056,132.847 161.056 C 132.926 161.056,134.083 160.322,135.418 159.425 C 136.753 158.529,139.095 157.027,140.622 156.088 C 142.150 155.149,144.009 154.003,144.753 153.542 C 145.942 152.806,146.198 152.419,146.848 150.362 C 150.354 139.279,158.498 128.831,168.317 122.821 C 174.158 119.246,178.801 117.558,187.487 115.851 C 189.352 115.484,198.490 115.344,199.987 115.659 C 202.940 116.281,203.034 116.261,205.951 114.376 C 207.488 113.382,209.860 111.873,211.221 111.020 C 212.583 110.168,214.920 108.677,216.416 107.706 C 217.912 106.735,219.207 105.941,219.294 105.941 C 219.591 105.941,224.257 102.849,224.367 102.580 C 224.428 102.431,224.616 102.310,224.785 102.310 C 224.954 102.310,225.944 101.765,226.985 101.098 C 228.026 100.431,229.398 99.560,230.033 99.163 C 233.678 96.884,237.724 94.322,240.308 92.657 C 241.928 91.613,243.334 90.759,243.432 90.759 C 243.531 90.759,244.710 90.054,246.052 89.191 C 248.301 87.747,248.954 87.129,248.231 87.129 C 248.074 87.129,246.849 86.407,245.508 85.526 C 244.167 84.644,242.624 83.677,242.079 83.376 C 241.535 83.076,240.866 82.687,240.594 82.513 C 236.992 80.207,222.349 74.257,220.277 74.257 C 220.011 74.257,219.535 74.118,219.220 73.947 C 218.679 73.654,214.271 72.550,213.201 72.439 C 212.929 72.411,212.112 72.284,211.386 72.157 C 210.660 72.031,209.546 71.857,208.911 71.772 C 208.276 71.687,207.162 71.533,206.436 71.430 C 205.710 71.327,204.447 71.166,203.630 71.071 C 201.769 70.855,188.595 70.592,188.416 70.767 M263.861 106.770 C 262.228 107.739,260.223 108.891,259.406 109.330 C 258.589 109.769,255.657 111.413,252.890 112.985 C 250.123 114.556,247.793 115.842,247.711 115.842 C 247.630 115.842,246.626 116.412,245.481 117.110 C 242.985 118.630,235.804 122.710,233.498 123.919 C 232.591 124.395,231.106 125.230,230.198 125.776 C 229.290 126.321,228.288 126.851,227.970 126.954 C 227.136 127.222,227.106 127.178,230.507 130.722 C 237.288 137.787,243.894 150.819,243.894 157.132 C 243.894 158.309,246.569 158.597,247.395 157.508 C 247.803 156.972,247.835 156.970,247.844 157.493 C 247.852 157.931,248.092 158.029,248.927 157.933 C 249.517 157.866,251.856 157.713,254.125 157.593 C 256.394 157.472,258.696 157.322,259.241 157.258 C 262.407 156.888,268.120 156.752,267.822 157.054 C 267.640 157.238,265.932 158.399,264.025 159.635 C 262.118 160.870,259.964 162.291,259.239 162.792 C 257.083 164.283,251.594 167.893,251.280 168.028 C 250.800 168.233,244.224 172.625,244.224 172.740 C 244.224 172.833,243.853 174.750,243.371 177.146 C 242.389 182.022,237.731 191.731,234.385 195.875 C 230.642 200.510,225.086 205.642,221.814 207.488 C 220.980 207.959,219.777 208.670,219.142 209.070 C 216.028 211.027,208.913 213.732,204.785 214.528 C 203.696 214.738,202.126 215.054,201.295 215.230 C 199.090 215.697,190.315 215.685,187.569 215.210 C 184.371 214.657,184.561 214.695,182.462 214.206 L 180.600 213.772 176.686 216.348 C 174.534 217.764,171.955 219.442,170.957 220.077 C 169.959 220.711,169.068 221.334,168.977 221.460 C 168.886 221.587,168.292 221.955,167.657 222.279 C 167.021 222.603,166.130 223.152,165.677 223.500 C 164.780 224.186,150.483 233.577,142.696 238.595 L 137.860 241.711 139.144 242.798 C 139.851 243.395,140.520 243.887,140.631 243.889 C 140.742 243.892,141.930 244.616,143.271 245.499 C 145.351 246.867,147.876 248.299,152.362 250.653 C 158.858 254.062,169.792 257.775,176.733 258.928 C 177.096 258.989,178.284 259.192,179.373 259.380 C 183.768 260.138,187.664 260.431,194.389 260.508 C 199.936 260.572,203.505 260.282,210.289 259.214 C 213.663 258.683,222.291 256.545,224.587 255.671 C 225.314 255.395,227.152 254.702,228.672 254.132 C 231.472 253.082,237.818 250.263,238.479 249.777 C 238.677 249.631,239.716 249.050,240.789 248.486 C 243.247 247.192,250.687 242.271,251.915 241.126 C 252.423 240.652,252.947 240.264,253.080 240.264 C 253.687 240.264,260.776 233.495,265.535 228.370 C 273.791 219.479,282.618 203.426,285.308 192.409 C 285.596 191.229,285.966 189.967,286.130 189.604 C 286.431 188.939,287.419 184.702,287.630 183.168 C 287.692 182.715,287.993 180.784,288.299 178.878 C 289.001 174.502,289.362 159.076,288.763 159.076 C 288.525 159.076,288.470 158.855,288.618 158.498 C 288.750 158.181,288.856 157.772,288.853 157.591 C 288.842 156.727,288.409 152.843,288.209 151.815 C 288.086 151.180,288.018 150.539,288.059 150.391 C 288.100 150.244,287.978 149.549,287.789 148.847 C 287.600 148.145,287.358 146.930,287.250 146.145 C 287.142 145.361,286.917 144.460,286.750 144.142 C 286.582 143.824,286.511 143.564,286.591 143.564 C 286.711 143.564,286.367 142.233,285.012 137.459 C 284.960 137.277,284.833 136.906,284.729 136.634 C 284.625 136.361,284.292 135.322,283.990 134.323 C 283.688 133.325,283.245 132.063,283.006 131.518 C 282.767 130.974,282.171 129.563,281.682 128.383 C 278.476 120.645,274.374 113.674,268.912 106.683 C 267.282 104.597,267.531 104.593,263.861 106.770 M194.637 118.715 C 195.045 118.793,195.714 118.793,196.122 118.715 C 196.531 118.636,196.196 118.572,195.380 118.572 C 194.563 118.572,194.229 118.636,194.637 118.715 M161.209 132.426 L 159.571 134.158 161.304 132.521 C 162.257 131.620,163.036 130.840,163.036 130.788 C 163.036 130.542,162.731 130.816,161.209 132.426 M229.620 159.309 C 230.029 159.387,230.697 159.387,231.106 159.309 C 231.514 159.230,231.180 159.166,230.363 159.166 C 229.546 159.166,229.212 159.230,229.620 159.309 M223.680 159.639 C 224.088 159.718,224.757 159.718,225.165 159.639 C 225.573 159.560,225.239 159.496,224.422 159.496 C 223.606 159.496,223.271 159.560,223.680 159.639 M218.564 159.963 C 218.882 160.046,219.402 160.046,219.719 159.963 C 220.037 159.880,219.777 159.813,219.142 159.813 C 218.507 159.813,218.247 159.880,218.564 159.963 M207.842 160.629 C 208.253 160.708,208.847 160.705,209.162 160.623 C 209.478 160.540,209.142 160.476,208.416 160.479 C 207.690 160.483,207.432 160.551,207.842 160.629 M201.898 160.959 C 202.306 161.038,202.974 161.038,203.383 160.959 C 203.791 160.880,203.457 160.816,202.640 160.816 C 201.823 160.816,201.489 160.880,201.898 160.959 M196.287 161.289 C 196.696 161.368,197.364 161.368,197.772 161.289 C 198.181 161.210,197.847 161.146,197.030 161.146 C 196.213 161.146,195.879 161.210,196.287 161.289 M169.224 162.939 C 169.633 163.018,170.301 163.018,170.710 162.939 C 171.118 162.861,170.784 162.796,169.967 162.796 C 169.150 162.796,168.816 162.861,169.224 162.939 M153.218 184.399 C 153.899 184.470,155.012 184.470,155.693 184.399 C 156.374 184.328,155.817 184.269,154.455 184.269 C 153.094 184.269,152.537 184.328,153.218 184.399 M157.843 184.395 C 158.344 184.471,159.087 184.469,159.493 184.391 C 159.899 184.312,159.488 184.250,158.581 184.253 C 157.673 184.255,157.341 184.319,157.843 184.395 M162.958 184.392 C 163.368 184.471,163.962 184.468,164.278 184.385 C 164.593 184.303,164.257 184.238,163.531 184.242 C 162.805 184.245,162.547 184.313,162.958 184.392 M101.155 184.897 C 101.235 185.126,101.377 185.685,101.471 186.139 C 101.564 186.592,101.781 187.632,101.953 188.449 C 103.112 193.958,108.962 208.434,111.551 212.199 C 111.867 212.659,112.977 214.411,114.016 216.092 C 116.084 219.439,119.242 223.828,121.094 225.931 C 121.745 226.669,123.221 228.337,124.375 229.637 L 126.472 232.001 127.709 231.100 C 130.401 229.136,134.167 226.268,134.323 226.062 C 134.414 225.942,135.465 225.116,136.660 224.226 C 141.148 220.880,144.091 218.641,145.065 217.832 C 145.618 217.373,146.488 216.700,146.997 216.337 C 147.507 215.974,148.785 215.008,149.838 214.191 C 150.891 213.375,153.193 211.592,154.953 210.231 C 156.713 208.870,158.324 207.607,158.532 207.426 C 158.740 207.244,159.505 206.656,160.231 206.118 C 162.756 204.247,162.767 204.478,160.022 201.838 C 155.748 197.726,151.781 192.191,149.126 186.634 L 148.109 184.505 124.559 184.493 C 105.745 184.483,101.037 184.565,101.155 184.897 M161.042 198.432 C 162.410 199.890,162.706 200.152,162.706 199.904 C 162.706 199.851,162.001 199.145,161.139 198.336 L 159.571 196.865 161.042 198.432 M195.132 212.439 C 195.450 212.522,195.969 212.522,196.287 212.439 C 196.605 212.356,196.345 212.288,195.710 212.288 C 195.074 212.288,194.814 212.356,195.132 212.439 " stroke="none" fill="#2c3393" fill-rule="evenodd"></path><path id="path3" d="M178.025 9.847 C 177.859 9.968,177.697 10.289,177.665 10.561 C 177.588 11.216,176.885 15.783,176.700 16.832 C 176.620 17.285,176.339 18.993,176.076 20.627 C 175.089 26.767,175.443 26.161,172.607 26.567 C 169.194 27.056,162.835 28.493,158.251 29.812 C 157.343 30.074,155.522 30.585,154.203 30.949 C 152.885 31.313,151.622 31.758,151.398 31.938 C 151.174 32.119,150.183 32.436,149.197 32.644 C 148.211 32.852,147.246 33.150,147.052 33.307 C 146.858 33.463,146.031 33.819,145.215 34.098 C 144.398 34.376,143.187 34.833,142.524 35.114 L 141.319 35.625 140.389 34.397 C 139.877 33.721,139.348 33.020,139.213 32.838 C 139.078 32.657,138.542 31.988,138.022 31.353 C 137.503 30.718,136.607 29.504,136.032 28.655 C 135.457 27.807,134.750 26.876,134.461 26.587 C 133.777 25.903,131.401 22.740,131.236 22.293 C 131.151 22.065,130.897 22.090,130.488 22.366 C 130.147 22.596,129.497 22.968,129.043 23.192 C 128.589 23.416,127.152 24.230,125.850 25.001 C 124.548 25.772,123.341 26.403,123.168 26.403 C 122.995 26.403,122.688 26.602,122.485 26.846 C 122.283 27.090,121.039 27.849,119.722 28.534 C 118.405 29.219,117.104 29.963,116.832 30.188 C 116.559 30.412,115.891 30.812,115.347 31.075 C 114.802 31.338,112.307 32.733,109.802 34.176 C 107.297 35.618,104.587 37.157,103.779 37.596 C 101.975 38.575,101.975 38.586,103.764 43.062 C 108.098 53.911,108.369 54.847,107.343 55.408 C 107.026 55.582,106.246 56.251,105.611 56.894 C 104.975 57.538,104.303 58.070,104.116 58.075 C 103.930 58.081,103.539 58.346,103.248 58.663 C 102.957 58.981,101.647 60.206,100.336 61.386 C 95.112 66.088,89.974 71.383,85.649 76.522 C 82.911 79.775,83.500 79.748,77.063 76.922 C 74.521 75.807,72.145 74.771,71.782 74.621 C 71.419 74.471,70.196 73.930,69.063 73.419 C 67.931 72.908,66.950 72.553,66.884 72.631 C 66.446 73.144,64.356 76.630,64.356 76.848 C 64.356 76.994,63.939 77.771,63.428 78.574 C 61.915 80.951,60.218 83.842,58.920 86.257 C 58.250 87.501,57.195 89.313,56.574 90.284 C 55.953 91.254,55.446 92.152,55.446 92.280 C 55.446 92.407,55.100 92.972,54.678 93.533 C 54.256 94.095,53.273 95.743,52.495 97.195 C 51.716 98.647,50.920 100.032,50.726 100.273 C 50.339 100.751,51.652 102.104,55.317 105.003 C 56.386 105.849,57.929 107.147,58.746 107.886 C 59.563 108.626,60.408 109.234,60.625 109.236 C 60.841 109.239,61.213 109.513,61.450 109.845 C 61.687 110.177,62.290 110.714,62.789 111.038 C 63.740 111.655,63.900 112.332,63.393 113.598 C 62.979 114.634,62.624 115.610,62.518 116.007 C 62.470 116.188,62.047 117.262,61.578 118.393 C 61.109 119.524,60.726 120.719,60.726 121.050 C 60.726 121.380,60.601 121.791,60.448 121.964 C 60.193 122.251,59.939 123.053,58.572 127.888 C 58.111 129.518,56.662 135.790,55.636 140.594 C 55.345 141.955,55.109 143.610,55.111 144.270 C 55.116 145.657,55.154 145.643,49.835 146.191 C 48.111 146.368,45.660 146.670,44.389 146.862 C 43.119 147.054,41.188 147.291,40.099 147.388 C 39.010 147.486,37.959 147.616,37.763 147.678 C 37.516 147.756,37.389 152.894,37.348 164.489 L 37.289 181.188 38.034 181.216 C 38.444 181.231,39.076 181.297,39.439 181.363 C 40.948 181.638,48.802 182.824,50.170 182.984 C 54.838 183.528,54.733 183.448,55.111 186.763 C 55.281 188.246,55.492 189.578,55.582 189.723 C 55.672 189.868,55.907 191.014,56.105 192.270 C 56.303 193.527,56.671 195.297,56.924 196.205 C 57.176 197.112,57.627 198.894,57.926 200.165 C 58.801 203.887,59.294 205.679,59.877 207.261 C 60.178 208.078,60.501 209.110,60.594 209.555 C 60.738 210.246,62.462 214.919,63.165 216.524 C 63.433 217.138,61.946 218.412,54.455 223.988 C 51.642 226.082,49.315 227.817,49.285 227.842 C 49.183 227.928,50.162 229.865,50.810 230.858 C 51.165 231.403,51.709 232.368,52.019 233.003 C 52.329 233.639,53.211 235.198,53.979 236.469 C 54.747 237.739,55.874 239.689,56.483 240.801 C 59.400 246.126,60.851 248.694,61.028 248.845 C 61.240 249.026,61.564 249.591,63.922 253.887 C 65.686 257.102,65.610 257.070,68.470 255.793 C 69.203 255.466,70.396 255.011,71.122 254.782 C 71.848 254.552,73.036 254.107,73.762 253.791 C 80.693 250.780,82.241 250.469,83.217 251.892 C 86.214 256.262,97.158 267.479,103.049 272.220 C 105.002 273.792,106.601 275.194,106.601 275.335 C 106.601 275.477,106.141 276.591,105.579 277.813 C 105.017 279.034,104.209 280.924,103.784 282.013 C 103.359 283.102,102.267 285.662,101.358 287.702 L 99.704 291.411 101.255 292.321 C 102.108 292.822,103.216 293.455,103.717 293.728 C 104.219 294.001,106.521 295.329,108.833 296.680 C 111.145 298.030,113.630 299.449,114.356 299.834 C 115.083 300.218,116.271 300.909,116.997 301.369 C 117.723 301.829,119.059 302.615,119.967 303.116 C 121.598 304.016,125.114 306.034,126.073 306.620 C 128.647 308.194,128.744 308.180,130.363 306.026 C 130.998 305.181,131.815 304.153,132.178 303.742 C 132.541 303.331,133.655 302.005,134.653 300.794 C 135.652 299.583,137.010 297.953,137.672 297.170 C 138.334 296.388,138.943 295.553,139.025 295.316 C 139.173 294.890,141.969 295.654,144.719 296.871 C 147.714 298.196,159.575 301.900,161.551 302.127 C 161.914 302.169,162.731 302.367,163.366 302.566 C 164.300 302.860,170.997 304.144,172.906 304.394 C 173.459 304.467,173.584 304.954,173.935 308.416 C 174.412 313.108,174.955 317.684,175.100 318.234 C 175.136 318.370,175.184 319.076,175.206 319.802 L 175.248 321.122 191.846 321.122 L 208.445 321.122 208.843 319.224 C 209.063 318.181,209.298 316.955,209.367 316.502 C 209.961 312.579,210.716 308.127,211.019 306.766 L 211.386 305.116 215.017 304.572 C 221.430 303.612,226.842 302.534,229.925 301.602 C 230.501 301.428,231.318 301.220,231.741 301.140 C 232.163 301.059,233.474 300.688,234.653 300.313 C 235.833 299.939,237.913 299.280,239.274 298.848 C 240.635 298.416,242.750 297.690,243.974 297.235 L 246.199 296.407 247.110 297.607 C 247.610 298.268,248.428 299.258,248.927 299.808 C 249.427 300.357,249.835 300.906,249.835 301.026 C 249.835 301.147,251.017 302.766,252.461 304.623 C 253.906 306.480,255.280 308.273,255.514 308.606 C 255.918 309.181,256.043 309.151,257.921 308.023 C 259.010 307.369,260.718 306.385,261.716 305.837 C 262.715 305.288,264.125 304.460,264.851 303.996 C 265.578 303.532,266.469 302.991,266.832 302.794 C 267.789 302.274,271.696 300.027,272.277 299.663 C 272.550 299.492,275.297 297.917,278.383 296.163 C 284.729 292.554,284.630 292.642,283.905 291.274 C 283.610 290.718,283.338 290.082,283.299 289.860 C 283.195 289.261,282.101 286.356,281.835 285.974 C 281.709 285.792,281.343 284.827,281.023 283.828 C 280.703 282.830,280.294 281.828,280.114 281.601 C 279.934 281.374,279.883 281.188,279.999 281.188 C 280.116 281.188,279.904 280.586,279.528 279.849 C 278.789 278.400,278.898 277.370,279.823 277.077 C 280.143 276.975,280.955 276.388,281.627 275.773 C 282.300 275.157,283.913 273.784,285.212 272.723 C 288.129 270.339,299.394 259.151,301.049 256.995 C 301.716 256.125,302.793 254.827,303.441 254.109 L 304.619 252.805 308.002 254.311 C 309.863 255.139,311.609 255.872,311.881 255.939 C 312.153 256.007,313.713 256.663,315.347 257.399 C 319.075 259.077,318.853 259.103,320.095 256.848 C 320.671 255.804,321.285 254.728,321.461 254.455 C 321.637 254.183,322.319 252.995,322.977 251.815 C 324.286 249.467,324.917 248.371,326.110 246.370 C 327.113 244.686,327.660 243.716,328.837 241.531 C 329.360 240.562,329.917 239.719,330.075 239.659 C 330.233 239.598,330.363 239.410,330.363 239.241 C 330.363 239.071,331.106 237.735,332.013 236.272 C 332.921 234.808,333.663 233.485,333.663 233.331 C 333.663 233.177,333.851 232.854,334.080 232.614 C 335.232 231.409,335.716 230.293,335.264 229.885 C 334.899 229.555,326.841 223.064,324.331 221.078 C 323.668 220.554,323.665 220.507,324.224 219.263 C 325.099 217.316,325.329 216.752,325.692 215.677 C 325.876 215.132,326.423 213.647,326.909 212.376 C 327.395 211.106,327.797 209.843,327.803 209.571 C 327.808 209.299,327.918 208.927,328.046 208.746 C 328.385 208.265,330.868 199.901,331.181 198.185 C 331.247 197.822,331.375 197.228,331.465 196.865 C 332.179 193.985,332.410 192.782,332.400 192.002 C 332.393 191.506,332.515 191.022,332.670 190.926 C 332.825 190.831,333.057 189.751,333.187 188.528 C 333.496 185.602,333.509 185.523,333.689 185.343 C 333.848 185.184,337.280 184.702,342.244 184.142 C 343.787 183.968,345.495 183.762,346.040 183.685 C 346.584 183.607,347.427 183.534,347.912 183.521 L 348.794 183.498 348.822 166.868 L 348.849 150.238 348.104 150.060 C 347.411 149.895,345.502 149.599,343.564 149.357 C 334.095 148.173,333.901 148.077,333.507 144.343 C 333.393 143.261,332.108 136.533,331.531 133.993 C 330.920 131.303,330.167 128.623,328.984 124.917 C 328.578 123.647,328.277 122.496,328.314 122.360 C 328.352 122.224,328.234 122.112,328.053 122.112 C 327.871 122.112,327.751 122.001,327.786 121.865 C 327.907 121.387,327.300 119.289,326.543 117.574 C 326.123 116.621,325.843 115.842,325.922 115.842 C 326.000 115.842,325.705 115.030,325.266 114.038 L 324.469 112.234 328.706 109.093 C 331.037 107.366,333.169 105.727,333.445 105.452 C 333.721 105.176,334.068 104.944,334.217 104.937 C 334.366 104.930,334.971 104.511,335.560 104.006 L 336.631 103.089 335.935 101.627 C 335.552 100.823,334.885 99.692,334.451 99.114 C 334.018 98.537,333.663 97.934,333.663 97.775 C 333.663 97.616,333.126 96.604,332.469 95.525 C 330.356 92.058,330.099 91.614,329.175 89.844 C 328.676 88.887,328.069 87.939,327.826 87.738 C 327.584 87.536,327.090 86.760,326.730 86.013 C 326.370 85.265,325.731 84.059,325.310 83.333 C 324.890 82.607,323.906 80.825,323.124 79.373 C 322.342 77.921,321.497 76.498,321.247 76.212 C 320.997 75.925,320.792 75.546,320.792 75.370 C 320.792 74.750,320.057 74.300,319.512 74.585 C 319.218 74.739,318.086 75.203,316.997 75.617 C 314.554 76.544,309.385 79.066,308.191 79.913 C 307.315 80.534,307.302 80.533,306.811 79.833 L 306.316 79.126 304.231 80.287 C 303.084 80.926,301.477 81.820,300.660 82.274 C 299.843 82.728,296.384 84.674,292.972 86.599 C 289.561 88.524,286.702 90.099,286.618 90.099 C 286.534 90.099,282.865 92.157,278.464 94.672 C 270.561 99.189,237.666 117.792,225.248 124.768 C 211.957 132.234,195.233 141.662,193.399 142.722 C 192.219 143.404,187.690 145.971,183.333 148.426 C 174.800 153.234,151.739 166.373,151.513 166.556 C 151.080 166.905,152.207 166.925,157.102 166.653 C 160.094 166.487,164.026 166.271,165.842 166.173 C 167.657 166.074,170.182 165.925,171.452 165.840 C 173.649 165.694,175.008 165.614,182.673 165.180 C 184.488 165.078,186.939 164.924,188.119 164.839 C 189.299 164.754,194.125 164.462,198.845 164.191 C 203.564 163.919,209.579 163.554,212.211 163.380 C 214.843 163.206,218.630 162.975,220.627 162.868 C 222.624 162.761,226.337 162.539,228.878 162.375 C 231.419 162.210,235.206 161.988,237.294 161.880 C 239.381 161.773,242.129 161.623,243.399 161.548 C 244.670 161.473,247.937 161.311,250.660 161.189 L 255.611 160.966 254.785 161.627 C 253.770 162.440,242.661 169.749,233.993 175.306 C 230.454 177.575,225.505 180.755,222.996 182.373 C 220.486 183.990,218.076 185.536,217.639 185.809 C 214.477 187.779,205.036 193.892,195.875 199.902 C 188.308 204.866,181.817 209.110,176.065 212.853 C 168.220 217.959,162.283 221.845,154.455 227.001 C 150.190 229.811,144.053 233.806,140.819 235.879 L 134.938 239.649 133.228 238.326 C 132.288 237.599,130.949 236.419,130.252 235.704 L 128.987 234.403 131.738 232.271 C 133.251 231.099,139.612 226.211,145.875 221.410 C 152.137 216.609,158.894 211.415,160.891 209.868 C 162.888 208.321,167.492 204.772,171.122 201.983 C 174.752 199.193,179.579 195.478,181.848 193.729 C 184.117 191.979,188.543 188.573,191.682 186.159 C 194.822 183.745,197.341 181.719,197.279 181.658 C 197.218 181.596,177.013 181.502,152.379 181.449 C 127.279 181.395,107.633 181.227,107.686 181.067 C 107.762 180.840,119.837 173.104,132.838 164.954 C 134.538 163.888,138.237 161.548,142.574 158.794 C 143.936 157.930,145.980 156.637,147.118 155.922 C 148.256 155.206,150.112 154.024,151.243 153.295 C 153.761 151.672,162.545 146.056,193.399 126.341 C 203.194 120.083,209.951 115.806,221.755 108.395 C 224.917 106.410,229.298 103.648,231.491 102.258 C 233.684 100.869,237.335 98.575,239.604 97.162 C 241.873 95.748,245.023 93.730,246.605 92.676 C 248.186 91.621,249.568 90.759,249.675 90.759 C 249.783 90.759,254.644 87.695,260.479 83.951 C 266.313 80.206,271.488 76.902,271.978 76.607 C 273.008 75.991,289.549 65.327,289.713 65.174 C 289.773 65.119,289.645 64.742,289.428 64.336 C 289.102 63.727,289.126 63.548,289.566 63.302 C 290.457 62.803,290.153 62.297,287.684 60.159 C 286.380 59.030,284.868 57.720,284.323 57.248 C 283.779 56.776,282.702 55.863,281.931 55.218 C 280.143 53.724,280.137 53.788,282.540 48.658 C 282.885 47.920,283.168 47.211,283.168 47.081 C 283.168 46.952,283.688 45.795,284.323 44.509 C 284.959 43.224,285.479 41.960,285.479 41.701 C 285.479 41.443,285.708 40.880,285.989 40.451 C 286.463 39.729,285.388 38.284,284.377 38.284 C 284.177 38.284,281.497 36.694,278.987 35.086 C 278.049 34.485,277.198 33.993,277.096 33.993 C 276.994 33.993,276.098 33.474,275.105 32.838 C 274.112 32.203,273.221 31.683,273.125 31.683 C 273.029 31.683,272.168 31.187,271.211 30.581 C 270.255 29.975,268.655 29.027,267.657 28.474 C 264.435 26.691,259.926 24.035,258.978 23.362 L 258.056 22.706 257.372 23.482 C 256.665 24.284,253.630 28.121,251.317 31.136 C 250.589 32.085,249.661 33.218,249.254 33.654 C 248.848 34.091,248.515 34.586,248.515 34.754 C 248.515 35.243,245.640 34.398,242.409 32.959 C 241.683 32.636,240.272 32.155,239.274 31.890 C 238.276 31.625,236.829 31.180,236.058 30.901 C 232.042 29.447,221.708 27.096,214.109 25.906 C 213.262 25.774,212.859 25.535,212.834 25.150 C 212.785 24.426,212.643 23.064,212.380 20.792 C 212.264 19.794,212.093 18.086,212.000 16.997 C 211.908 15.908,211.695 14.497,211.528 13.861 C 211.361 13.226,211.224 12.011,211.223 11.162 L 211.221 9.618 194.775 9.623 C 185.729 9.626,178.192 9.727,178.025 9.847 M209.050 20.380 C 210.164 29.483,209.898 28.603,211.611 28.864 C 225.446 30.973,234.251 33.232,244.982 37.423 C 247.123 38.260,248.923 38.944,248.983 38.944 C 249.066 38.944,254.911 31.765,258.317 27.480 C 258.787 26.889,282.145 40.228,282.169 41.101 C 282.174 41.289,280.990 44.255,279.537 47.692 C 278.084 51.129,276.819 54.183,276.726 54.477 C 276.606 54.855,277.554 55.827,279.945 57.778 C 281.808 59.298,284.043 61.202,284.911 62.009 L 286.488 63.475 282.270 66.239 C 279.951 67.759,273.705 71.782,268.392 75.178 C 263.079 78.574,257.187 82.341,255.299 83.548 L 251.866 85.742 247.633 82.949 C 222.303 66.236,185.049 62.494,159.241 74.071 C 158.696 74.315,157.137 74.997,155.776 75.587 C 145.328 80.108,130.966 89.921,124.074 97.247 C 108.878 113.401,100.313 130.517,97.016 151.320 C 95.719 159.504,95.797 173.787,97.178 181.023 C 97.507 182.745,97.523 183.396,97.242 183.581 C 96.966 183.762,96.979 183.902,97.291 184.104 C 97.525 184.255,98.297 186.669,99.005 189.467 C 113.663 247.341,176.929 279.191,231.937 256.387 C 290.971 231.915,311.331 157.186,272.819 106.332 C 270.289 102.992,270.289 102.991,271.035 102.518 C 271.446 102.258,275.124 100.157,279.208 97.850 C 283.292 95.543,287.302 93.245,288.119 92.745 C 288.936 92.245,290.421 91.413,291.419 90.896 C 292.417 90.379,295.725 88.566,298.770 86.867 C 301.815 85.168,304.711 83.657,305.206 83.510 C 305.701 83.362,308.833 82.185,312.167 80.895 C 315.501 79.604,318.397 78.548,318.603 78.548 C 318.935 78.548,319.741 79.864,323.643 86.778 C 324.213 87.788,326.403 91.577,328.511 95.198 C 330.619 98.819,332.333 101.938,332.321 102.128 C 332.309 102.319,330.118 104.080,327.453 106.042 C 324.788 108.003,322.181 109.953,321.661 110.375 L 320.715 111.142 322.361 115.390 C 326.128 125.111,328.896 135.534,330.368 145.545 C 331.214 151.303,330.361 150.553,337.294 151.629 C 340.470 152.123,343.663 152.629,344.389 152.754 L 345.709 152.981 345.613 166.659 C 345.560 174.181,345.480 180.373,345.435 180.418 C 345.389 180.463,342.099 180.915,338.123 181.422 L 330.893 182.343 329.964 187.789 C 328.226 197.971,325.065 209.180,321.636 217.327 C 320.795 219.323,320.076 221.088,320.037 221.247 C 319.978 221.492,328.173 228.505,330.656 230.335 L 331.444 230.916 328.219 236.498 C 324.598 242.764,317.743 254.562,317.623 254.731 C 317.581 254.792,314.600 253.579,311.001 252.035 C 307.401 250.492,304.251 249.180,304.001 249.120 C 303.751 249.059,302.882 249.827,302.070 250.825 C 294.591 260.018,286.664 267.823,278.135 274.392 C 274.665 277.065,274.688 276.229,277.859 284.323 C 280.243 290.411,280.402 290.966,279.909 291.458 C 279.614 291.751,276.180 293.823,272.277 296.060 C 268.375 298.298,263.274 301.225,260.943 302.564 C 258.611 303.903,256.666 304.951,256.621 304.892 C 256.348 304.539,247.379 292.554,247.321 292.465 C 247.283 292.405,246.925 292.530,246.526 292.744 C 241.352 295.513,222.568 300.458,212.278 301.759 C 207.798 302.326,208.429 301.648,207.613 306.771 C 207.237 309.128,206.693 312.541,206.402 314.356 C 206.112 316.172,205.805 317.771,205.719 317.911 C 205.540 318.203,181.311 318.226,179.470 317.935 C 178.326 317.755,178.235 317.653,178.069 316.379 C 177.972 315.630,177.526 312.064,177.078 308.456 C 176.630 304.848,176.220 301.861,176.168 301.819 C 176.115 301.777,173.771 301.335,170.957 300.836 C 161.550 299.166,151.991 296.393,142.469 292.569 C 140.291 291.694,138.453 291.131,138.308 291.293 C 138.164 291.453,137.023 292.848,135.772 294.393 C 134.522 295.938,132.251 298.712,130.727 300.557 L 127.957 303.912 126.107 302.884 C 125.090 302.318,122.178 300.649,119.637 299.173 C 117.096 297.698,112.715 295.177,109.901 293.572 C 107.087 291.967,104.591 290.477,104.353 290.262 C 104.002 289.944,104.541 288.418,107.214 282.155 C 109.026 277.911,110.430 274.313,110.335 274.158 C 110.239 274.004,108.424 272.494,106.300 270.802 C 99.283 265.213,91.737 257.509,85.575 249.643 C 84.378 248.115,83.287 246.865,83.151 246.865 C 82.877 246.865,74.758 249.881,70.164 251.690 C 66.587 253.098,67.774 254.349,60.570 241.584 C 57.344 235.866,54.425 230.697,54.084 230.097 C 53.744 229.496,53.465 228.955,53.465 228.895 C 53.465 228.834,56.562 226.442,60.347 223.580 L 67.228 218.376 66.263 215.871 C 62.544 206.223,59.506 194.834,58.212 185.686 C 57.515 180.754,57.893 181.138,52.970 180.364 C 51.155 180.078,47.665 179.508,45.215 179.097 L 40.759 178.350 40.673 164.503 L 40.587 150.655 44.963 150.074 C 47.371 149.755,51.196 149.261,53.465 148.977 C 58.368 148.363,57.614 149.008,58.254 144.876 C 59.982 133.723,62.874 123.155,66.804 113.630 C 67.837 111.128,67.859 111.184,64.790 108.746 C 61.978 106.513,55.515 101.163,54.831 100.502 C 54.454 100.137,54.822 99.330,57.110 95.496 C 58.611 92.981,61.681 87.731,63.933 83.828 C 66.185 79.926,68.130 76.630,68.255 76.505 C 68.380 76.380,69.447 76.697,70.627 77.209 C 71.807 77.722,74.257 78.761,76.073 79.519 C 77.888 80.277,79.818 81.097,80.363 81.341 C 82.220 82.174,83.909 82.838,84.170 82.838 C 84.314 82.838,85.216 81.836,86.175 80.611 C 91.314 74.045,100.323 64.901,107.361 59.106 C 109.867 57.043,111.851 55.189,111.769 54.988 C 108.782 47.561,106.263 40.602,106.338 39.989 C 106.417 39.343,107.310 38.695,111.056 36.567 C 113.597 35.124,116.883 33.211,118.358 32.318 C 119.832 31.424,121.125 30.693,121.231 30.693 C 121.337 30.693,122.209 30.227,123.170 29.657 C 125.544 28.249,126.968 27.438,128.630 26.547 L 130.032 25.795 131.270 27.333 C 132.824 29.263,132.410 28.725,136.520 34.158 C 140.290 39.143,140.470 39.260,142.564 38.105 C 144.360 37.115,152.762 34.235,159.241 32.389 C 164.147 30.990,169.719 29.899,175.489 29.206 C 178.158 28.885,177.954 29.338,179.203 20.957 C 179.799 16.964,180.356 13.511,180.442 13.284 C 180.564 12.963,183.655 12.871,194.365 12.871 L 208.131 12.871 209.050 20.380 M174.136 34.293 C 173.905 35.734,173.321 36.343,171.281 37.268 C 169.294 38.170,168.977 38.132,168.977 36.991 C 168.977 34.314,165.571 33.045,164.377 35.276 C 163.431 37.043,164.210 37.842,165.510 36.439 C 165.946 35.968,166.459 35.680,166.650 35.798 C 167.427 36.279,166.928 37.281,165.347 38.417 C 162.684 40.330,163.481 40.550,169.472 39.558 C 175.077 38.629,178.569 34.547,174.873 33.243 C 174.454 33.096,174.290 33.330,174.136 34.293 M172.895 41.624 C 170.888 42.361,171.444 47.765,174.268 54.950 C 176.759 61.291,176.551 63.696,173.512 63.696 C 171.718 63.696,171.142 62.319,169.272 53.555 C 168.682 50.790,168.091 48.353,167.958 48.139 C 167.582 47.530,165.614 48.445,165.814 49.136 C 166.388 51.122,168.647 62.004,168.647 62.785 C 168.647 64.134,167.182 65.510,165.449 65.787 C 161.933 66.349,161.140 64.525,162.745 59.571 C 165.057 52.438,163.869 49.020,159.417 49.998 C 156.019 50.744,156.265 55.424,159.731 55.978 C 161.297 56.229,161.267 56.046,160.231 59.012 C 157.604 66.532,163.711 71.518,169.331 66.441 L 170.610 65.285 172.054 65.837 C 175.911 67.310,179.164 63.800,178.209 59.198 C 177.883 57.630,177.483 56.553,175.892 52.970 C 174.564 49.980,173.956 43.945,174.768 41.828 C 175.020 41.172,174.333 41.097,172.895 41.624 M188.026 45.592 C 182.878 46.732,180.998 52.591,185.237 54.287 C 189.245 55.891,192.030 50.408,188.057 48.733 L 186.964 48.272 188.201 48.027 C 189.997 47.671,191.589 48.075,192.678 49.164 C 193.871 50.358,194.449 58.428,193.619 62.310 L 193.174 64.389 194.511 64.290 C 196.259 64.161,196.299 63.988,196.322 56.601 C 196.346 48.881,195.943 47.645,192.943 46.249 C 191.233 45.453,189.626 45.238,188.026 45.592 M205.776 46.702 C 203.283 47.586,202.643 49.334,204.155 51.130 C 205.191 52.361,205.754 52.407,206.467 51.318 C 206.911 50.641,206.933 50.400,206.588 49.984 C 205.829 49.070,206.740 48.676,209.507 48.720 C 217.152 48.841,219.153 51.921,216.985 60.231 C 215.697 65.167,214.796 64.913,213.232 59.173 C 211.480 52.744,200.990 53.314,200.990 59.839 C 200.990 63.676,206.138 66.343,208.387 63.671 C 210.591 61.052,207.589 57.157,204.599 58.757 C 203.665 59.257,203.747 58.273,204.694 57.609 C 207.159 55.883,210.331 57.798,211.312 61.606 C 213.516 70.164,219.631 66.557,220.355 56.271 C 220.614 52.590,220.136 51.043,218.143 49.112 C 215.463 46.517,209.549 45.364,205.776 46.702 M145.691 49.932 L 144.811 50.689 145.334 52.729 C 145.985 55.269,147.444 58.188,149.633 61.333 C 152.791 65.867,153.212 66.628,153.379 68.113 C 153.522 69.378,153.425 69.707,152.695 70.437 C 150.712 72.420,149.434 71.186,145.553 63.543 C 142.044 56.631,142.534 57.341,141.458 57.610 C 140.262 57.911,140.242 57.846,143.564 64.593 C 147.278 72.135,147.346 73.730,144.015 75.123 C 140.662 76.523,139.875 75.306,139.986 68.892 C 140.092 62.810,139.559 61.325,137.105 60.865 C 134.502 60.377,132.096 62.343,132.703 64.461 C 133.200 66.195,134.052 66.781,135.975 66.713 L 137.666 66.653 137.485 68.062 C 136.967 72.095,137.133 73.572,138.302 75.336 C 140.449 78.578,145.917 78.051,148.147 74.387 L 149.010 72.969 150.660 73.139 C 153.558 73.439,155.776 71.467,155.776 68.591 C 155.776 66.803,155.368 65.948,152.342 61.386 C 149.078 56.465,147.782 53.653,147.588 51.073 C 147.428 48.940,147.085 48.734,145.691 49.932 M187.444 50.642 C 188.126 51.464,187.735 52.627,186.738 52.743 C 185.497 52.886,184.847 51.705,185.668 50.798 C 186.352 50.043,186.906 49.994,187.444 50.642 M228.472 52.133 C 224.933 53.740,224.770 58.598,228.218 59.736 C 231.707 60.887,234.074 56.687,231.254 54.349 C 230.531 53.750,230.534 53.748,231.837 53.965 C 234.283 54.371,235.585 55.445,236.083 57.469 C 236.365 58.614,233.610 67.279,232.310 69.336 C 231.154 71.165,231.154 71.166,232.148 71.415 C 232.584 71.525,233.169 71.702,233.447 71.808 C 234.416 72.180,238.714 60.747,238.687 57.869 C 238.644 53.234,233.012 50.072,228.472 52.133 M161.221 53.135 C 161.221 54.143,161.108 54.303,160.336 54.393 C 159.205 54.523,158.535 53.485,159.086 52.455 C 159.737 51.241,161.221 51.714,161.221 53.135 M230.161 56.188 C 230.881 57.332,229.258 58.619,228.202 57.743 C 227.549 57.200,227.599 56.212,228.300 55.798 C 229.066 55.345,229.716 55.482,230.161 56.188 M247.785 59.344 C 246.912 59.445,244.884 61.031,244.884 61.612 C 244.884 62.476,246.689 62.987,247.479 62.347 C 250.022 60.288,256.766 64.382,256.766 67.985 C 256.766 69.316,253.786 74.948,252.579 75.897 C 251.122 77.043,248.524 76.829,246.003 75.354 C 244.081 74.229,243.617 73.597,244.715 73.597 C 245.519 73.597,246.535 71.930,246.535 70.612 C 246.535 67.306,241.888 66.367,240.144 69.320 C 237.396 73.972,247.118 81.229,252.805 78.771 C 255.008 77.819,258.837 71.800,259.276 68.600 C 259.939 63.765,253.615 58.672,247.785 59.344 M207.209 60.952 C 207.918 62.220,206.348 63.642,205.347 62.640 C 204.920 62.213,204.812 60.975,205.171 60.616 C 205.598 60.188,206.902 60.403,207.209 60.952 M136.980 63.067 C 137.485 64.011,137.114 65.254,136.246 65.530 C 135.420 65.792,134.653 64.989,134.653 63.864 C 134.653 62.401,136.318 61.830,136.980 63.067 M106.723 66.164 C 106.367 67.091,106.867 67.572,108.430 67.807 C 109.766 68.007,114.283 70.124,116.328 71.507 C 117.774 72.486,119.383 71.752,120.473 69.615 C 121.765 67.083,122.210 68.291,121.135 71.414 C 120.294 73.859,120.310 73.895,124.885 79.812 C 129.524 85.812,129.353 85.670,131.754 85.515 C 132.579 85.462,134.653 83.533,134.653 82.820 C 134.653 80.246,132.015 78.835,129.766 80.206 C 128.407 81.035,128.590 81.166,125.599 77.234 C 122.865 73.642,122.799 73.412,123.762 70.878 C 124.626 68.606,124.597 68.176,123.518 67.175 C 121.728 65.515,119.717 66.184,118.347 68.894 C 117.739 70.098,117.581 70.156,116.658 69.516 C 115.098 68.435,110.662 66.326,109.589 66.155 C 108.944 66.053,108.078 65.899,107.666 65.814 C 107.190 65.717,106.846 65.844,106.723 66.164 M244.366 69.826 C 244.979 70.439,244.985 70.483,244.543 71.309 C 243.951 72.415,242.244 71.908,242.244 70.627 C 242.244 69.420,243.490 68.950,244.366 69.826 M203.630 71.071 C 204.447 71.166,205.710 71.327,206.436 71.430 C 207.162 71.533,208.276 71.687,208.911 71.772 C 209.546 71.857,210.660 72.031,211.386 72.157 C 212.112 72.284,212.929 72.411,213.201 72.439 C 214.271 72.550,218.679 73.654,219.220 73.947 C 219.535 74.118,220.011 74.257,220.277 74.257 C 222.349 74.257,236.992 80.207,240.594 82.513 C 240.866 82.687,241.535 83.076,242.079 83.376 C 242.624 83.677,244.167 84.644,245.508 85.526 C 246.849 86.407,248.074 87.129,248.231 87.129 C 248.954 87.129,248.301 87.747,246.052 89.191 C 244.710 90.054,243.531 90.759,243.432 90.759 C 243.334 90.759,241.928 91.613,240.308 92.657 C 237.724 94.322,233.678 96.884,230.033 99.163 C 229.398 99.560,228.026 100.431,226.985 101.098 C 225.944 101.765,224.954 102.310,224.785 102.310 C 224.616 102.310,224.428 102.431,224.367 102.580 C 224.257 102.849,219.591 105.941,219.294 105.941 C 219.207 105.941,217.912 106.735,216.416 107.706 C 214.920 108.677,212.583 110.168,211.221 111.020 C 209.860 111.873,207.488 113.382,205.951 114.376 C 203.034 116.261,202.940 116.281,199.987 115.659 C 198.490 115.344,189.352 115.484,187.487 115.851 C 178.801 117.558,174.158 119.246,168.317 122.821 C 158.498 128.831,150.354 139.279,146.848 150.362 C 146.198 152.419,145.942 152.806,144.753 153.542 C 144.009 154.003,142.150 155.149,140.622 156.088 C 139.095 157.027,136.753 158.529,135.418 159.425 C 134.083 160.322,132.926 161.056,132.847 161.056 C 132.767 161.056,130.728 162.320,128.315 163.864 C 125.902 165.409,123.151 167.154,122.203 167.742 C 121.254 168.331,119.280 169.592,117.816 170.545 C 116.352 171.498,115.084 172.277,114.999 172.277 C 114.915 172.277,113.547 173.114,111.961 174.136 C 103.963 179.291,102.217 180.397,101.424 180.811 C 100.432 181.330,100.444 181.339,100.187 179.950 C 99.289 175.114,98.885 161.895,99.493 157.261 C 99.588 156.535,99.749 155.198,99.851 154.290 C 100.015 152.830,100.212 151.408,100.468 149.835 C 102.068 139.983,107.817 124.219,111.920 118.431 C 112.262 117.949,112.541 117.460,112.541 117.345 C 112.541 117.229,112.819 116.733,113.159 116.241 C 113.499 115.749,114.356 114.455,115.063 113.366 C 120.223 105.418,127.853 97.209,135.479 91.403 C 137.112 90.159,138.888 88.800,139.425 88.383 C 140.618 87.456,146.814 83.498,147.072 83.498 C 147.174 83.498,147.668 83.206,148.169 82.850 C 152.291 79.914,167.139 74.046,173.263 72.932 C 174.082 72.783,176.365 72.360,178.336 71.991 C 180.307 71.623,183.351 71.226,185.102 71.109 C 186.852 70.992,188.343 70.838,188.416 70.767 C 188.595 70.592,201.769 70.855,203.630 71.071 M132.539 81.683 C 133.054 82.469,132.563 84.158,131.819 84.158 C 131.099 84.158,130.363 83.351,130.363 82.563 C 130.363 80.832,131.642 80.315,132.539 81.683 M268.912 106.683 C 274.374 113.674,278.476 120.645,281.682 128.383 C 282.171 129.563,282.767 130.974,283.006 131.518 C 283.245 132.063,283.688 133.325,283.990 134.323 C 284.292 135.322,284.625 136.361,284.729 136.634 C 284.833 136.906,284.960 137.277,285.012 137.459 C 286.367 142.233,286.711 143.564,286.591 143.564 C 286.511 143.564,286.582 143.824,286.750 144.142 C 286.917 144.460,287.142 145.361,287.250 146.145 C 287.358 146.930,287.600 148.145,287.789 148.847 C 287.978 149.549,288.100 150.244,288.059 150.391 C 288.018 150.539,288.086 151.180,288.209 151.815 C 288.409 152.843,288.842 156.727,288.853 157.591 C 288.856 157.772,288.750 158.181,288.618 158.498 C 288.470 158.855,288.525 159.076,288.763 159.076 C 289.362 159.076,289.001 174.502,288.299 178.878 C 287.993 180.784,287.692 182.715,287.630 183.168 C 287.419 184.702,286.431 188.939,286.130 189.604 C 285.966 189.967,285.596 191.229,285.308 192.409 C 282.618 203.426,273.791 219.479,265.535 228.370 C 260.776 233.495,253.687 240.264,253.080 240.264 C 252.947 240.264,252.423 240.652,251.915 241.126 C 250.687 242.271,243.247 247.192,240.789 248.486 C 239.716 249.050,238.677 249.631,238.479 249.777 C 237.818 250.263,231.472 253.082,228.672 254.132 C 227.152 254.702,225.314 255.395,224.587 255.671 C 222.291 256.545,213.663 258.683,210.289 259.214 C 203.505 260.282,199.936 260.572,194.389 260.508 C 187.664 260.431,183.768 260.138,179.373 259.380 C 178.284 259.192,177.096 258.989,176.733 258.928 C 169.792 257.775,158.858 254.062,152.362 250.653 C 147.876 248.299,145.351 246.867,143.271 245.499 C 141.930 244.616,140.742 243.892,140.631 243.889 C 140.520 243.887,139.851 243.395,139.144 242.798 L 137.860 241.711 142.696 238.595 C 150.483 233.577,164.780 224.186,165.677 223.500 C 166.130 223.152,167.021 222.603,167.657 222.279 C 168.292 221.955,168.886 221.587,168.977 221.460 C 169.068 221.334,169.959 220.711,170.957 220.077 C 171.955 219.442,174.534 217.764,176.686 216.348 L 180.600 213.772 182.462 214.206 C 184.561 214.695,184.371 214.657,187.569 215.210 C 190.315 215.685,199.090 215.697,201.295 215.230 C 202.126 215.054,203.696 214.738,204.785 214.528 C 208.913 213.732,216.028 211.027,219.142 209.070 C 219.777 208.670,220.980 207.959,221.814 207.488 C 225.086 205.642,230.642 200.510,234.385 195.875 C 237.731 191.731,242.389 182.022,243.371 177.146 C 243.853 174.750,244.224 172.833,244.224 172.740 C 244.224 172.625,250.800 168.233,251.280 168.028 C 251.594 167.893,257.083 164.283,259.239 162.792 C 259.964 162.291,262.118 160.870,264.025 159.635 C 265.932 158.399,267.640 157.238,267.822 157.054 C 268.120 156.752,262.407 156.888,259.241 157.258 C 258.696 157.322,256.394 157.472,254.125 157.593 C 251.856 157.713,249.517 157.866,248.927 157.933 C 248.092 158.029,247.852 157.931,247.844 157.493 C 247.835 156.970,247.803 156.972,247.395 157.508 C 246.569 158.597,243.894 158.309,243.894 157.132 C 243.894 150.819,237.288 137.787,230.507 130.722 C 227.106 127.178,227.136 127.222,227.970 126.954 C 228.288 126.851,229.290 126.321,230.198 125.776 C 231.106 125.230,232.591 124.395,233.498 123.919 C 235.804 122.710,242.985 118.630,245.481 117.110 C 246.626 116.412,247.630 115.842,247.711 115.842 C 247.793 115.842,250.123 114.556,252.890 112.985 C 255.657 111.413,258.589 109.769,259.406 109.330 C 260.223 108.891,262.228 107.739,263.861 106.770 C 267.531 104.593,267.282 104.597,268.912 106.683 M196.782 118.667 C 197.826 118.783,198.680 118.974,198.680 119.093 C 198.680 119.212,197.826 119.854,196.782 120.520 C 195.738 121.187,191.988 123.588,188.449 125.856 C 184.909 128.124,179.785 131.400,177.063 133.134 C 174.340 134.869,168.102 138.889,163.201 142.068 C 149.796 150.762,150.142 150.589,150.994 148.174 C 156.358 132.970,172.773 120.465,189.439 118.886 C 193.822 118.471,194.751 118.444,196.782 118.667 M227.112 131.931 C 233.660 138.241,238.294 146.352,240.293 155.004 C 241.255 159.166,243.633 158.517,222.937 159.738 C 213.133 160.317,200.033 161.117,193.399 161.542 C 192.038 161.629,187.954 161.860,184.323 162.056 C 180.693 162.252,177.175 162.469,176.506 162.538 C 175.837 162.608,173.089 162.757,170.401 162.870 C 167.712 162.983,165.177 163.143,164.769 163.227 C 162.517 163.688,163.836 162.902,193.894 145.872 C 195.710 144.844,200.462 142.166,204.455 139.922 C 208.449 137.678,214.389 134.323,217.657 132.468 C 224.804 128.409,223.533 128.481,227.112 131.931 M74.257 155.446 C 74.257 159.757,74.388 159.706,71.324 156.598 C 68.514 153.749,68.789 153.865,67.585 155.019 L 66.653 155.912 69.200 158.474 C 70.601 159.883,71.663 161.120,71.561 161.223 C 71.394 161.389,68.331 161.623,65.429 161.691 C 64.402 161.715,64.356 161.772,64.356 163.036 L 64.356 164.356 67.987 164.356 C 72.307 164.356,72.238 164.166,69.086 167.405 L 66.554 170.007 67.600 171.052 L 68.645 172.098 71.211 169.547 C 74.417 166.361,74.257 166.304,74.257 170.627 L 74.257 174.257 75.743 174.257 L 77.228 174.257 77.228 170.627 C 77.228 166.304,77.068 166.361,80.274 169.547 L 82.840 172.098 83.810 171.115 L 84.781 170.132 82.324 167.558 C 79.203 164.286,79.177 164.356,83.498 164.356 L 87.129 164.356 87.129 163.036 L 87.129 161.716 83.683 161.716 C 79.308 161.716,79.227 161.552,82.138 158.622 C 84.770 155.972,84.813 155.865,83.676 154.797 L 82.863 154.034 80.128 156.608 L 77.393 159.182 77.299 155.498 L 77.206 151.815 75.732 151.815 L 74.257 151.815 74.257 155.446 M310.561 156.016 L 310.561 159.886 307.826 157.165 L 305.091 154.444 304.034 155.534 L 302.978 156.624 305.449 159.080 C 308.557 162.167,308.604 162.046,304.290 162.046 L 300.660 162.046 300.660 163.531 L 300.660 165.017 303.053 165.048 C 304.369 165.066,306.002 165.055,306.683 165.023 C 308.353 164.946,308.298 165.077,305.396 168.058 L 302.871 170.653 303.808 171.630 C 305.008 172.882,304.725 172.994,307.591 170.139 C 310.711 167.032,310.561 166.965,310.561 171.452 L 310.561 175.248 312.046 175.248 L 313.531 175.248 313.531 171.617 C 313.531 167.229,313.543 167.225,316.662 170.446 L 319.043 172.906 320.119 171.796 L 321.194 170.686 318.700 168.109 C 317.328 166.692,316.254 165.485,316.312 165.426 C 316.371 165.367,317.997 165.319,319.926 165.319 L 323.432 165.319 323.432 163.670 C 323.432 162.161,323.369 162.027,322.690 162.085 C 322.281 162.120,320.614 162.126,318.985 162.098 L 316.022 162.046 318.640 159.413 L 321.258 156.779 320.303 155.782 C 319.047 154.471,319.127 154.445,316.467 157.013 C 313.405 159.970,313.531 160.022,313.531 155.803 L 313.531 152.145 312.046 152.145 L 310.561 152.145 310.561 156.016 M240.471 175.495 C 240.379 175.813,240.137 176.741,239.934 177.558 C 235.755 194.377,220.334 208.488,202.519 211.794 C 197.528 212.720,184.488 212.307,184.488 211.223 C 184.488 210.978,191.067 206.595,202.970 198.910 C 206.328 196.742,210.932 193.754,213.201 192.270 C 215.470 190.785,218.477 188.836,219.883 187.937 C 221.288 187.039,224.778 184.772,227.638 182.899 C 230.498 181.027,233.135 179.363,233.498 179.202 C 233.861 179.041,235.495 178.017,237.129 176.927 C 240.345 174.780,240.726 174.616,240.471 175.495 M188.391 184.661 C 188.450 184.714,186.976 185.922,185.116 187.346 C 183.255 188.769,180.980 190.513,180.058 191.220 C 170.568 198.508,166.104 201.907,165.755 202.111 C 163.973 203.152,150.834 186.343,151.980 184.488 C 152.145 184.221,188.093 184.391,188.391 184.661 M149.126 186.634 C 151.781 192.191,155.748 197.726,160.022 201.838 C 162.767 204.478,162.756 204.247,160.231 206.118 C 159.505 206.656,158.740 207.244,158.532 207.426 C 158.324 207.607,156.713 208.870,154.953 210.231 C 153.193 211.592,150.891 213.375,149.838 214.191 C 148.785 215.008,147.507 215.974,146.997 216.337 C 146.488 216.700,145.618 217.373,145.065 217.832 C 144.091 218.641,141.148 220.880,136.660 224.226 C 135.465 225.116,134.414 225.942,134.323 226.062 C 134.167 226.268,130.401 229.136,127.709 231.100 L 126.472 232.001 124.375 229.637 C 123.221 228.337,121.745 226.669,121.094 225.931 C 119.242 223.828,116.084 219.439,114.016 216.092 C 112.977 214.411,111.867 212.659,111.551 212.199 C 108.962 208.434,103.112 193.958,101.953 188.449 C 101.781 187.632,101.564 186.592,101.471 186.139 C 101.377 185.685,101.235 185.126,101.155 184.897 C 101.037 184.565,105.745 184.483,124.559 184.493 L 148.109 184.505 149.126 186.634 M84.818 208.935 C 76.407 213.017,76.380 213.032,76.465 213.439 C 76.538 213.793,82.134 225.478,82.318 225.662 C 82.387 225.732,83.043 225.483,83.775 225.110 L 85.106 224.431 82.982 219.960 C 80.419 214.566,80.428 215.124,82.891 214.056 C 85.299 213.012,85.021 212.799,87.290 217.425 C 88.287 219.458,89.160 221.122,89.231 221.122 C 89.702 221.122,91.749 220.067,91.749 219.824 C 91.749 219.660,90.932 217.787,89.934 215.662 C 88.936 213.537,88.119 211.745,88.119 211.680 C 88.119 211.492,91.472 209.844,91.599 209.971 C 91.661 210.033,92.685 212.052,93.874 214.456 L 96.036 218.827 97.358 218.153 C 98.085 217.782,98.680 217.334,98.680 217.157 C 98.680 216.506,92.901 205.281,92.579 205.306 C 92.395 205.320,88.903 206.953,84.818 208.935 M294.137 207.560 C 290.898 208.148,287.583 214.175,288.799 217.263 C 290.622 221.892,294.409 221.786,298.951 216.980 C 301.808 213.955,302.801 213.532,303.777 214.925 C 305.379 217.212,303.146 220.906,300.197 220.847 C 298.847 220.820,298.798 220.856,298.254 222.326 C 297.582 224.138,297.659 224.303,299.304 224.581 C 305.317 225.597,310.527 215.764,306.057 211.838 C 303.017 209.168,300.399 209.781,296.500 214.075 C 294.438 216.346,293.812 216.848,293.138 216.767 C 290.383 216.434,292.232 211.223,295.107 211.220 C 296.099 211.219,296.264 211.074,296.825 209.711 C 297.629 207.755,296.785 207.079,294.137 207.560 M92.177 223.862 C 88.328 226.439,85.012 228.715,84.810 228.918 C 84.538 229.191,85.369 230.682,87.980 234.601 L 91.519 239.913 92.484 239.346 C 94.206 238.335,94.192 238.257,91.569 234.322 C 90.200 232.269,89.198 230.479,89.342 230.345 C 89.486 230.211,92.314 228.303,95.627 226.106 C 98.940 223.909,101.650 222.024,101.650 221.917 C 101.650 221.506,99.818 219.157,99.505 219.166 C 99.323 219.172,96.026 221.285,92.177 223.862 M287.097 221.799 C 279.864 222.961,277.299 232.415,282.856 237.435 C 289.145 243.117,298.017 239.864,298.617 231.656 C 299.006 226.326,292.670 220.905,287.097 221.799 M290.688 226.208 C 295.260 228.545,296.442 232.582,293.389 235.434 C 289.146 239.398,280.733 232.697,283.807 227.802 C 285.307 225.414,287.940 224.804,290.688 226.208 M100.740 236.523 L 93.724 242.312 94.304 243.063 C 94.623 243.477,96.444 245.647,98.350 247.887 C 100.256 250.126,102.038 252.228,102.310 252.557 C 102.782 253.128,102.863 253.108,104.038 252.135 L 105.271 251.115 101.985 247.257 L 98.699 243.399 100.422 241.835 C 102.599 239.859,102.150 239.694,105.499 243.709 L 108.372 247.154 109.624 246.162 L 110.877 245.170 107.931 241.645 L 104.984 238.119 106.370 236.891 C 108.141 235.322,107.673 235.091,111.191 239.274 C 114.648 243.383,114.349 243.207,115.812 241.986 L 116.912 241.067 112.528 235.880 C 110.117 233.027,108.057 230.702,107.950 230.714 C 107.843 230.725,104.599 233.339,100.740 236.523 M270.859 239.205 C 269.295 240.807,268.643 238.818,275.317 252.805 C 276.400 255.074,277.426 257.288,277.598 257.724 L 277.910 258.518 278.918 257.559 C 280.644 255.916,280.709 255.571,279.693 253.445 L 278.783 251.541 281.199 248.900 L 283.614 246.260 285.289 246.933 C 287.910 247.986,287.866 247.992,289.209 246.385 L 290.464 244.882 289.704 244.582 C 289.286 244.417,287.013 243.511,284.653 242.569 C 271.446 237.294,272.479 237.546,270.859 239.205 M277.276 243.597 C 280.567 244.985,280.565 244.981,278.877 246.701 C 277.042 248.571,277.286 248.671,275.654 245.380 C 274.069 242.185,274.029 242.229,277.276 243.597 M117.134 244.724 C 109.467 246.794,106.031 255.209,110.825 260.176 C 113.336 262.778,116.525 263.540,119.426 262.232 C 121.032 261.508,121.046 261.441,119.951 259.573 L 119.109 258.137 117.627 258.793 C 115.312 259.817,112.649 258.460,112.015 255.933 C 111.272 252.975,116.255 247.614,119.427 247.957 C 122.093 248.245,123.993 250.714,123.189 252.844 C 122.844 253.757,122.892 253.837,124.232 254.623 C 126.036 255.680,126.263 255.660,126.700 254.406 C 128.516 249.197,122.631 243.240,117.134 244.724 M256.765 251.742 L 255.335 253.011 260.867 259.922 C 263.909 263.722,266.510 266.874,266.647 266.925 C 266.827 266.992,275.407 260.302,276.533 259.216 C 276.721 259.034,275.133 256.771,274.815 256.768 C 274.668 256.767,273.080 257.954,271.287 259.406 C 269.494 260.858,267.880 262.046,267.701 262.046 C 267.521 262.046,265.412 259.559,263.014 256.518 C 260.616 253.478,258.551 250.874,258.425 250.731 C 258.299 250.589,257.552 251.044,256.765 251.742 M128.821 252.686 L 127.912 253.877 128.890 254.673 C 129.428 255.111,130.425 255.789,131.106 256.178 C 132.689 257.085,132.928 256.465,128.521 262.890 C 123.321 270.470,123.577 269.588,126.134 271.104 L 127.021 271.630 128.479 269.561 C 129.281 268.423,131.169 265.710,132.675 263.531 C 134.181 261.353,135.460 259.514,135.518 259.443 C 135.576 259.373,136.567 259.930,137.719 260.681 C 140.165 262.274,140.135 262.269,140.951 261.304 C 141.296 260.895,139.947 264.035,137.951 268.281 C 135.956 272.526,134.323 276.035,134.323 276.078 C 134.323 276.221,137.686 277.605,137.773 277.498 C 137.820 277.440,138.539 275.945,139.370 274.175 C 141.033 270.637,141.330 270.444,142.923 271.868 C 143.862 272.707,143.999 273.115,144.661 277.037 L 145.380 281.296 147.445 282.218 C 149.496 283.134,149.509 283.135,149.349 282.412 C 149.260 282.011,149.032 280.480,148.842 279.009 C 148.514 276.472,148.219 275.150,147.689 273.845 C 147.482 273.335,147.675 273.267,149.343 273.267 C 153.456 273.267,155.731 268.058,152.880 265.170 C 151.984 264.263,143.164 259.749,142.270 259.741 C 142.012 259.738,141.567 259.535,141.280 259.290 C 140.672 258.769,133.150 253.645,131.119 252.368 L 129.730 251.494 128.821 252.686 M246.782 257.959 C 244.862 258.938,244.797 258.385,247.413 263.333 C 252.045 272.093,252.115 272.586,248.949 274.216 C 246.220 275.622,245.252 274.608,240.160 265.017 C 239.437 263.655,238.793 262.479,238.729 262.403 C 238.609 262.260,237.350 262.845,236.049 263.649 L 235.299 264.112 236.009 265.307 C 236.400 265.964,237.461 267.913,238.367 269.637 C 243.029 278.514,245.369 279.851,250.921 276.810 C 255.666 274.211,256.016 271.898,252.658 265.313 C 250.843 261.754,248.593 257.484,248.388 257.210 C 248.367 257.182,247.644 257.519,246.782 257.959 M148.185 265.913 C 149.934 266.928,150.153 267.201,150.160 268.375 C 150.166 269.414,148.760 270.686,147.916 270.405 C 146.212 269.837,143.017 268.530,142.691 268.268 C 142.415 268.046,142.572 267.426,143.268 265.990 L 144.224 264.017 145.462 264.534 C 146.143 264.819,147.368 265.439,148.185 265.913 M157.497 267.233 C 157.316 267.739,155.963 271.480,154.491 275.549 C 151.333 284.279,151.471 283.277,153.328 283.987 C 155.265 284.726,155.027 285.076,157.709 277.557 C 158.971 274.018,160.316 270.335,160.697 269.373 L 161.389 267.624 160.315 267.185 C 158.020 266.246,157.852 266.249,157.497 267.233 M228.878 266.479 C 228.696 266.545,227.434 266.929,226.073 267.333 C 222.458 268.406,219.802 269.366,219.802 269.600 C 219.802 269.938,225.645 286.035,225.947 286.529 C 226.536 287.494,235.809 283.101,237.114 281.240 C 240.844 275.917,234.451 264.459,228.878 266.479 M166.995 269.615 C 159.412 271.922,157.902 284.186,164.816 287.310 C 168.654 289.043,171.451 288.622,173.926 285.937 C 175.446 284.287,175.406 284.043,173.444 282.986 L 172.290 282.365 171.185 283.571 C 166.849 288.305,162.128 282.321,165.091 275.847 C 167.033 271.605,173.267 271.582,173.267 275.816 C 173.267 276.513,173.409 276.568,175.203 276.568 L 177.139 276.568 176.909 275.330 C 176.135 271.166,171.217 268.331,166.995 269.615 M231.234 270.271 C 233.208 271.475,235.179 277.141,234.334 279.183 C 233.803 280.464,229.132 283.038,228.495 282.400 C 228.047 281.953,224.531 271.391,224.754 271.162 C 225.962 269.919,229.793 269.392,231.234 270.271 M208.086 271.141 C 199.150 272.460,197.591 272.625,195.496 272.466 C 194.252 272.373,191.267 272.213,188.861 272.112 L 184.488 271.929 184.488 273.588 L 184.488 275.248 187.174 275.248 L 189.860 275.248 189.732 282.921 L 189.604 290.594 191.337 290.694 L 193.069 290.794 193.095 288.714 C 193.108 287.570,193.177 286.337,193.246 285.974 C 193.316 285.611,193.389 283.457,193.410 281.188 C 193.464 275.224,193.268 275.578,196.520 275.578 L 199.239 275.578 199.823 279.785 C 200.145 282.100,200.447 284.216,200.495 284.488 C 200.544 284.761,200.693 285.949,200.827 287.129 C 200.962 288.309,201.188 289.581,201.330 289.957 L 201.588 290.639 208.137 289.719 C 211.739 289.213,214.817 288.794,214.977 288.789 C 215.270 288.779,215.056 286.233,214.735 285.913 C 214.641 285.818,212.365 286.042,209.678 286.410 C 206.990 286.779,204.746 287.034,204.690 286.979 C 204.480 286.768,203.908 282.450,204.069 282.289 C 204.162 282.196,206.218 281.824,208.637 281.461 C 213.805 280.686,213.200 280.990,212.972 279.284 C 212.755 277.669,212.952 277.709,208.581 278.383 C 203.353 279.188,203.417 279.204,203.146 277.035 C 202.862 274.761,202.312 275.078,207.868 274.310 C 213.361 273.551,212.878 273.782,212.642 272.023 C 212.426 270.419,212.662 270.465,208.086 271.141 M180.034 272.034 C 179.772 272.796,177.499 289.491,177.639 289.630 C 177.792 289.783,180.984 290.413,181.087 290.310 C 181.310 290.087,183.714 272.403,183.544 272.238 C 183.084 271.790,180.175 271.622,180.034 272.034 " stroke="none" fill="#212022" fill-rule="evenodd"></path><path id="path4" d="M192.409 118.721 C 174.743 119.600,159.264 130.103,152.047 146.109 C 149.968 150.721,148.900 151.161,165.017 140.762 C 169.464 137.893,176.295 133.514,180.198 131.031 C 197.776 119.847,199.032 118.993,198.020 118.906 C 195.889 118.724,193.764 118.653,192.409 118.721 M216.832 133.054 C 204.306 140.107,201.361 141.771,189.604 148.444 C 164.203 162.860,164.193 162.866,165.038 162.964 C 165.480 163.016,172.005 162.685,179.538 162.230 C 187.071 161.775,199.546 161.019,207.261 160.552 C 214.975 160.084,225.627 159.441,230.931 159.123 C 236.235 158.805,240.646 158.474,240.733 158.387 C 241.288 157.832,238.950 150.160,236.767 145.380 C 234.069 139.468,225.816 129.294,223.805 129.402 C 223.509 129.417,220.371 131.061,216.832 133.054 M236.542 177.404 C 234.767 178.577,233.258 179.538,233.189 179.538 C 233.028 179.538,204.499 197.976,193.180 205.396 C 188.431 208.509,184.644 211.148,184.764 211.259 C 185.744 212.168,196.202 212.573,200.884 211.883 C 219.519 209.139,235.115 195.410,239.803 177.624 C 240.591 174.633,240.718 174.642,236.542 177.404 M152.603 186.123 C 154.854 190.981,157.830 195.067,162.186 199.282 L 165.367 202.358 166.837 201.262 C 172.849 196.777,188.084 184.936,188.100 184.736 C 188.110 184.600,179.957 184.488,169.982 184.488 L 151.846 184.488 152.603 186.123 " stroke="none" fill="#f9f9f9" fill-rule="evenodd"></path></g></svg>