<svg id="Icons" version="1.1" viewBox="0 0 32 32" xml:space="preserve" xmlns="http://www.w3.org/2000/svg" enable-background="new 0 0 32 32"><path d="M19 24c-.6 0-1 .4-1 1v2c0 .6-.4 1-1 1H7c-.6 0-1-.4-1-1V5c0-.6.4-1 1-1h1v.3C8 5.8 9.2 7 10.7 7h2.6C14.8 7 16 5.8 16 4.3V4h1c.6 0 1 .4 1 1v2c0 .6.4 1 1 1s1-.4 1-1V5c0-1.7-1.3-3-3-3H7C5.3 2 4 3.3 4 5v22c0 1.7 1.3 3 3 3h10c1.7 0 3-1.3 3-3v-2c0-.6-.4-1-1-1z" fill="#ffffff" class="fill-000000"></path><path d="M25 9h-7c-1.7 0-3 1.3-3 3v10c0 .3.2.7.5.9.1.1.3.1.5.1s.3 0 .4-.1l5.8-2.9H25c1.7 0 3-1.3 3-3v-5c0-1.7-1.3-3-3-3zm-4 8h-2c-.6 0-1-.4-1-1s.4-1 1-1h2c.6 0 1 .4 1 1s-.4 1-1 1zm3-3h-5c-.6 0-1-.4-1-1s.4-1 1-1h5c.6 0 1 .4 1 1s-.4 1-1 1zM8 25c0 .6.4 1 1 1h6c.6 0 1-.4 1-1s-.4-1-1-1H9c-.6 0-1 .4-1 1z" fill="#ffffff" class="fill-000000"></path></svg>