<svg viewBox="0 0 24 24" xml:space="preserve" xmlns="http://www.w3.org/2000/svg"><g fill="#ffffff" class="fill-303c42"><path d="M12 14.5c1.379 0 2.5-1.121 2.5-2.5S13.379 9.5 12 9.5 9.5 10.621 9.5 12s1.121 2.5 2.5 2.5zm0-3a.501.501 0 0 1 0 1 .501.501 0 0 1 0-1zM1.293 5.707a.997.997 0 0 0 1.414 0l.793-.793.793.793a.997.997 0 0 0 1.414 0 1 1 0 0 0 0-1.414L4.914 3.5l.793-.793a1 1 0 1 0-1.414-1.414l-.793.793-.793-.793a1 1 0 1 0-1.414 1.414l.793.793-.793.793a1 1 0 0 0 0 1.414zM22.707 18.293a1 1 0 0 0-1.414 0l-.793.793-.793-.793a1 1 0 1 0-1.414 1.414l.793.793-.793.793a1 1 0 1 0 1.414 1.414l.793-.793.793.793a.997.997 0 0 0 1.414 0 1 1 0 0 0 0-1.414l-.793-.793.793-.793a1 1 0 0 0 0-1.414z"></path><path d="M23.5 9a.5.5 0 0 0 .5-.5v-1a.5.5 0 0 0-.5-.5H17V.5a.5.5 0 0 0-.5-.5h-1a.5.5 0 0 0-.5.5V7H9V.5a.5.5 0 0 0-.5-.5h-1a.5.5 0 0 0-.5.5V7H.5a.5.5 0 0 0-.5.5v1a.5.5 0 0 0 .5.5H7v6H.5a.5.5 0 0 0-.5.5v1a.5.5 0 0 0 .5.5H7v6.5a.5.5 0 0 0 .5.5h1a.5.5 0 0 0 .5-.5V17h6v6.5a.5.5 0 0 0 .5.5h1a.5.5 0 0 0 .5-.5V17h6.5a.5.5 0 0 0 .5-.5v-1a.5.5 0 0 0-.5-.5H17V9h6.5zM15 15H9V9h6v6z"></path></g></svg>